<?xml version="1.0" encoding="UTF-8"?>
<svg version="1.1" xmlns="http://www.w3.org/2000/svg" width="512" height="512">
  <path
    d="M0 0 C0.86625 0.5775 1.7325 1.155 2.625 1.75 C6.14380265 5.08360251 8.57490602 8.82086544 11 13 C11.41894531 13.71800781 11.83789062 14.43601562 12.26953125 15.17578125 C16.56193482 23.95776593 16.35339982 34.99946711 14.234375 44.39453125 C8.9914871 59.60306718 -4.71730302 70.86843516 -15.86088562 81.99459839 C-17.01570461 83.15129095 -18.17030881 84.30819799 -19.32471973 85.46529782 C-22.46323571 88.60987001 -25.60480529 91.75137519 -28.74694359 94.89232731 C-32.14816979 98.29334794 -35.54652373 101.69723667 -38.94528198 105.10072327 C-45.58911829 111.75283063 -52.23569687 118.4021913 -58.88339027 125.05044393 C-64.28661284 130.45414296 -69.68904231 135.85863364 -75.0909214 141.26367569 C-90.42229198 156.60383999 -105.75574409 171.94191928 -121.09188785 187.27731167 C-121.9169384 188.10232225 -122.74198894 188.92733284 -123.59204102 189.77734375 C-124.41810354 190.60336539 -125.24416606 191.42938703 -126.09526078 192.28043963 C-139.5015831 205.68635494 -152.90290149 219.09726016 -166.30197706 232.51041816 C-180.07569587 246.29849855 -193.85313762 260.08284915 -207.63447124 273.86331856 C-215.36558442 281.5940999 -223.09515318 289.32641094 -230.82071495 297.06274033 C-237.39267946 303.64380652 -243.96809363 310.22140164 -250.5480059 316.79452185 C-253.90342216 320.14667242 -257.25721209 323.50040824 -260.60665703 326.85852623 C-263.6746562 329.93438797 -266.74726308 333.00556829 -269.82355271 336.07313778 C-270.933448 337.18149767 -272.04166932 338.29153705 -273.14800497 339.40345012 C-284.30334508 350.61128025 -295.24192394 360.41113677 -311.859375 361.12890625 C-330.74247687 360.35385356 -341.21381284 350.38250126 -353.80957031 337.70800781 C-355.27829939 336.24470618 -356.74787644 334.78225526 -358.2182312 333.32058716 C-362.19009342 329.36688686 -366.14928657 325.40072687 -370.10571384 321.43158817 C-374.25821818 317.26891925 -378.42051609 313.11606119 -382.58123779 308.96160889 C-389.5652746 301.9848384 -396.54086032 294.99970161 -403.51171875 288.00976562 C-411.55791786 279.94179992 -419.61842506 271.88834479 -427.68651509 263.8422749 C-434.62747907 256.91949375 -441.56057893 249.98890925 -448.48722911 243.05180621 C-452.61799705 238.91481925 -456.75137938 234.78054166 -460.89188385 230.65329742 C-464.78505693 226.77172406 -468.66822894 222.88040934 -472.5440712 218.98153305 C-473.96358361 217.55675561 -475.38646637 216.13532645 -476.81303787 214.71761703 C-487.43502375 204.15552354 -497.06172739 194.40870202 -497.38061523 178.54272461 C-497.34955098 165.85905381 -495.01576058 156.42556788 -486 147 C-476.55934997 138.1384233 -466.14374524 134.65669048 -453.3828125 134.78515625 C-438.75774276 135.71400017 -429.07782409 144.33143788 -419.23803711 154.30786133 C-418.08487503 155.46215348 -416.93082792 156.61556202 -415.77597046 157.76815796 C-412.66221301 160.88077358 -409.56089397 164.00551576 -406.46175075 167.1326735 C-403.21385179 170.405675 -399.95452754 173.66725932 -396.69642639 176.93009949 C-390.53690725 183.10202244 -384.38765086 189.28406531 -378.24206501 195.46985883 C-371.24147106 202.51525134 -364.22943757 209.54921134 -357.2164458 216.58225977 C-342.79824779 231.0422033 -328.39439192 245.51636066 -314 260 C-310.47784708 258.49518675 -308.21770446 256.462823 -305.52487087 253.75979328 C-304.6284577 252.86489541 -303.73204453 251.96999755 -302.80846733 251.04798156 C-301.81765534 250.04869966 -300.82693224 249.04932962 -299.83628845 248.04988098 C-298.78103605 246.99263677 -297.72533703 245.93583818 -296.66922957 244.87944812 C-293.76480698 241.97172968 -290.86665571 239.05782931 -287.96943867 236.14293373 C-284.84479046 233.00144527 -281.71432448 229.8657643 -278.58447266 226.72946167 C-273.15929385 221.29167611 -267.73757069 215.85046488 -262.31794548 210.40714455 C-254.47208705 202.52734603 -246.61882028 194.65496331 -238.76332826 186.78476986 C-226.005867 174.00340308 -213.25140875 161.21904502 -200.50024414 148.43139648 C-199.73680357 147.66577566 -198.97336299 146.90015484 -198.18678785 146.11133339 C-187.36191158 135.25526205 -176.54003601 124.39620439 -165.71937848 113.53592827 C-164.95806024 112.77182341 -164.196742 112.00771854 -163.41235352 111.22045898 C-162.27177221 110.07569709 -162.27177221 110.07569709 -161.10814887 108.9078087 C-148.41730164 96.17084872 -135.71870518 83.44164724 -123.01376158 70.71874827 C-115.18004636 62.87334065 -107.35290215 55.02148936 -99.53413887 47.16117998 C-94.17109991 41.77066709 -88.80081176 36.38744775 -83.42482602 31.0098469 C-80.32569471 27.90931131 -77.22990749 24.80562141 -74.1429081 21.6930027 C-71.31194905 18.83867428 -68.47173808 15.99389172 -65.62416334 13.15614232 C-64.60039077 12.1326702 -63.57995184 11.10584911 -62.56338989 10.07521472 C-44.30583185 -8.4217566 -22.52878491 -15.42467563 0 0 Z "
    fill="#22c55e" transform="translate(497,80)" />
</svg>