<?xml version="1.0" encoding="UTF-8"?>
<svg version="1.1" xmlns="http://www.w3.org/2000/svg" width="512" height="512">
  <path
    d="M0 0 C1.54620121 -0.00445668 1.54620121 -0.00445668 3.12363881 -0.0090034 C6.55917476 -0.01763752 9.99467564 -0.01919417 13.43022156 -0.02069092 C15.9015307 -0.02532296 18.37283912 -0.03034814 20.84414673 -0.03573608 C27.54722355 -0.04882782 34.25028677 -0.0553367 40.95337319 -0.05974674 C45.14852476 -0.06251879 49.34367405 -0.06675795 53.53882408 -0.07125092 C65.18083838 -0.08343889 76.82285087 -0.09373788 88.46487141 -0.09712601 C89.20879733 -0.09734557 89.95272326 -0.09756514 90.7191924 -0.09779136 C91.83758445 -0.09811878 91.83758445 -0.09811878 92.97857028 -0.09845281 C94.48914675 -0.09889625 95.99972322 -0.09934282 97.51029968 -0.09979248 C98.25958011 -0.10001391 99.00886054 -0.10023534 99.78084644 -0.10046348 C111.89799449 -0.1044041 124.01508213 -0.12183769 136.13220689 -0.145152 C148.60792767 -0.16896003 161.08361828 -0.1813322 173.55936211 -0.18249393 C180.54967206 -0.18340561 187.53990335 -0.18902838 194.53019142 -0.20731354 C201.11548974 -0.22447991 207.70066637 -0.22589713 214.28598976 -0.21717453 C216.68837382 -0.21640988 219.09076621 -0.22067033 221.49312973 -0.23063278 C239.10179539 -0.29930725 256.68570964 0.4185335 273.5969696 5.82794189 C274.82020935 6.20922241 274.82020935 6.20922241 276.06816101 6.59820557 C294.66236936 12.62373904 310.62231395 22.4519527 325.4094696 35.14044189 C326.39366882 35.94094971 326.39366882 35.94094971 327.39775085 36.75762939 C331.92254637 40.46976763 335.67652386 44.64320769 339.4094696 49.14044189 C340.0488446 49.89196533 340.6882196 50.64348877 341.3469696 51.41778564 C352.43966485 64.78535004 360.53849067 80.07274272 366.1594696 96.45294189 C366.44121033 97.25731689 366.72295105 98.06169189 367.01322937 98.89044189 C371.65205399 112.99933492 372.87980795 127.16424539 372.84306335 141.90606689 C372.84764697 143.55782276 372.85295881 145.20957675 372.85894775 146.86132812 C372.86779559 150.29673077 372.86555365 153.73189996 372.85551453 157.16729736 C372.84633361 160.64247744 372.85323549 164.11698513 372.87602234 167.59210205 C373.14288186 208.48977795 366.74669927 244.06153346 339.4094696 276.14044189 C338.60896179 277.08790283 337.80845398 278.03536377 336.98368835 279.01153564 C314.01832293 305.17504084 280.94864902 321.58205274 246.4094696 325.14044189 C238.50630318 325.6007685 230.58653778 325.42752695 222.67485046 325.33477783 C220.34154213 325.31919971 218.0082228 325.30520248 215.67489624 325.29264832 C210.68236969 325.26389929 205.68999579 325.2269649 200.69756889 325.18434906 C192.76895081 325.11965049 184.84038694 325.09138617 176.91156006 325.07141113 C175.55256883 325.06779656 174.19357767 325.06416002 172.83458656 325.06050181 C170.77602731 325.05498935 168.71746802 325.04949933 166.65890847 325.04409824 C158.92950643 325.02367106 151.20012324 324.99912717 143.4707489 324.97003174 C142.41340865 324.96607092 142.41340865 324.96607092 141.33470798 324.96203008 C129.95082701 324.91796808 118.56765151 324.82960223 107.18416398 324.72736189 C95.41879382 324.62303592 83.65413095 324.57771418 71.88829905 324.58209252 C65.31322103 324.58273701 58.74030364 324.55527179 52.16580009 324.46099091 C23.48981266 324.0657715 -0.45143699 324.44528372 -25.55238914 339.36546326 C-29.88561845 341.89707348 -34.39572814 343.95441719 -38.9655304 346.01544189 C-40.4197626 346.70510596 -41.8725143 347.39791159 -43.32295227 348.09552002 C-57.16924428 354.73230719 -71.07003034 361.22740957 -85.07054138 367.53207397 C-93.42801903 371.29786797 -101.745147 375.13828903 -110.02412415 379.07403564 C-110.90085785 379.49081573 -111.77759155 379.90759583 -112.68089294 380.33700562 C-116.98491707 382.38551035 -121.28550926 384.44096201 -125.5827179 386.50372314 C-127.13609456 387.24592897 -128.68947954 387.98811737 -130.24287415 388.73028564 C-130.95890305 389.07635361 -131.67493195 389.42242157 -132.41265869 389.77897644 C-137.36472475 392.14044189 -137.36472475 392.14044189 -139.5905304 392.14044189 C-139.68229319 358.33928323 -139.75267394 324.53815582 -139.79479171 290.73690005 C-139.79979392 286.73697369 -139.80497127 282.73704758 -139.81025696 278.73712158 C-139.8113062 277.94088303 -139.81235544 277.14464448 -139.81343648 276.32427749 C-139.83079267 263.4693628 -139.86230365 250.61452042 -139.89914158 237.75964847 C-139.93668479 224.54745142 -139.95879437 211.33529197 -139.96688437 198.12304378 C-139.97234457 189.98500439 -139.98952402 181.84716946 -140.02219626 173.70919308 C-140.04350984 168.11176167 -140.04969285 162.51443434 -140.04453591 156.9169654 C-140.04199994 153.6982067 -140.04785793 150.4798722 -140.06735229 147.2611618 C-140.29549874 107.61550229 -128.73827687 71.76380313 -100.5905304 43.14044189 C-91.23490325 33.69765052 -82.0110131 25.87536201 -70.5905304 19.14044189 C-70.01351379 18.79239502 -69.43649719 18.44434814 -68.84199524 18.08575439 C-48.14061776 5.72186686 -23.99057982 -0.02191741 0 0 Z M-33.8405304 37.82794189 C-34.93518616 38.20922241 -34.93518616 38.20922241 -36.05195618 38.59820557 C-58.09364803 46.59053164 -78.28657807 62.03866005 -90.5905304 82.14044189 C-91.15900696 83.00282471 -91.72748352 83.86520752 -92.31318665 84.75372314 C-96.05684524 90.70243779 -98.85453285 96.83952032 -101.3405304 103.39044189 C-101.62219055 104.11545898 -101.90385071 104.84047607 -102.19404602 105.58746338 C-107.53576268 120.31383679 -108.01991962 134.95667964 -107.93110657 150.41778564 C-107.93025843 152.50878894 -107.93073906 154.59979312 -107.93243408 156.6907959 C-107.93328819 162.3178482 -107.91575792 167.94470522 -107.89471221 173.57171249 C-107.8758471 179.47066993 -107.87418726 185.36963277 -107.87063599 191.26861572 C-107.86134425 202.41707214 -107.83676962 213.56543939 -107.80658752 224.7138567 C-107.77295374 237.41530361 -107.756535 250.11675498 -107.74150121 262.8182354 C-107.71021729 288.92568683 -107.6575131 315.03305935 -107.5905304 341.14044189 C-103.54727117 339.81759651 -99.7175051 338.36401099 -95.8639679 336.55841064 C-94.21618347 335.78956543 -94.21618347 335.78956543 -92.53511047 335.00518799 C-91.35714905 334.45169678 -90.17918762 333.89820557 -88.9655304 333.32794189 C-87.70747454 332.73986403 -86.44925178 332.1521431 -85.19087219 331.5647583 C-82.58922335 330.35000945 -79.98828904 329.13375053 -77.38789368 327.9163208 C-73.91515022 326.29123175 -70.43913122 324.67328552 -66.96162415 323.05841064 C-65.44535006 322.35197292 -65.44535006 322.35197292 -63.89844418 321.63126373 C-61.65505937 320.59421622 -59.4061043 319.56908742 -57.15039158 318.55913544 C-51.06330045 315.8069733 -45.14773043 312.94568908 -39.35055858 309.62122107 C-10.37715976 293.09576067 15.59487437 291.49471939 48.44648051 292.11082268 C54.46228344 292.20404895 60.47763771 292.20451042 66.493985 292.20637137 C78.39336017 292.21266925 90.29056187 292.30022017 102.18901062 292.44464111 C113.66877135 292.58375543 125.14799792 292.69079063 136.62846375 292.75030518 C137.33932874 292.75400614 138.05019374 292.7577071 138.7826001 292.76152021 C145.86943001 292.79777721 152.95628036 292.82887487 160.04314176 292.85825089 C162.80847806 292.86972625 165.57381329 292.88143923 168.33914804 292.89328128 C169.70468705 292.89910578 171.07022647 292.90483555 172.43576629 292.91046923 C181.04320055 292.94657707 189.64993438 293.01003848 198.25696266 293.10461998 C203.18964949 293.15746751 208.12239916 293.19876743 213.0552063 293.23859215 C215.32305926 293.25996209 217.59086927 293.28677077 219.85858345 293.31972694 C250.9088611 293.76711342 278.24515623 287.3663727 302.4094696 267.14044189 C303.15712585 266.54489502 303.9047821 265.94934814 304.6750946 265.33575439 C325.00849241 248.60473022 337.20917001 221.82568049 340.4094696 196.14044189 C340.69044581 191.05194225 340.71607361 185.96963703 340.71025085 180.87481689 C340.7141531 179.42814006 340.71849081 177.98146435 340.72323608 176.53479004 C340.73064285 173.51935088 340.73044844 170.50402891 340.72514343 167.48858643 C340.71936607 163.67218268 340.73626485 159.856267 340.75948811 156.0399437 C340.77440347 153.05573847 340.77507318 150.07164589 340.77197838 147.08740997 C340.77248304 145.68275235 340.77755472 144.27808691 340.7877903 142.87346649 C340.87403094 129.38423921 339.14647202 116.23687497 334.2844696 103.57794189 C333.9866156 102.78911621 333.6887616 102.00029053 333.38188171 101.18756104 C322.79373978 74.27365991 301.16487458 52.39914023 274.77275085 40.89434814 C255.05371015 32.74098612 235.66606496 31.84012999 214.60966492 31.86578369 C212.2343683 31.8614289 209.85907308 31.85624321 207.48377991 31.85029602 C201.07035783 31.83697665 194.65699494 31.8363195 188.24356174 31.83885932 C184.22694872 31.84014925 180.21034446 31.83750778 176.19373322 31.83387184 C175.52406316 31.83327665 174.8543931 31.83268146 174.16443001 31.83206824 C172.80337391 31.83085631 171.44231782 31.82964218 170.08126172 31.82842586 C157.35519845 31.81758276 144.62916175 31.81969731 131.903097 31.82581071 C120.30297128 31.83097572 108.70292964 31.81972964 97.10282055 31.80071249 C85.1455848 31.78126261 73.18838868 31.77309064 61.23113704 31.77683574 C54.5366155 31.77873715 47.84218065 31.77609394 41.14766693 31.7621212 C34.84707717 31.74946118 28.54665452 31.75156369 22.24606705 31.76453209 C19.94807756 31.7668798 17.650076 31.76422891 15.35210037 31.75590897 C-1.21031505 31.70031836 -18.06688269 32.15823372 -33.8405304 37.82794189 Z "
    fill="#FFF" transform="translate(139.5905303955078,59.85955810546875)" />
  <path
    d="M0 0 C7.3652543 5.09035924 11.18237067 10.54711201 14 19 C14.87064807 29.97587479 13.77591387 38.55176537 6.875 47.3125 C0.78099382 53.8005152 -6.95706062 56.6581058 -15.6875 57.25 C-24.27995576 57.08818351 -31.89716386 54.06354749 -38 48 C-45.34975577 38.73930774 -46.96434089 30.65753864 -46 19 C-44.15890477 11.38205508 -39.10829034 4.55106473 -32.46484375 0.42578125 C-21.48618125 -5.21715426 -11.19217695 -5.80818512 0 0 Z "
    fill="#FFF" transform="translate(272,202)" />
  <path
    d="M0 0 C6.06141598 4.87548677 11.47514847 10.43833512 12.875 18.3125 C13.88172135 29.66328321 12.78470582 37.598655 5.75 46.5625 C0.75263716 51.95835945 -5.84349397 55.30209494 -13.125 56.3125 C-20.85420886 56.36198277 -27.66821737 55.75955559 -34.125 51.3125 C-35.04732422 50.67828125 -35.04732422 50.67828125 -35.98828125 50.03125 C-41.6725565 45.64936758 -45.81813237 39.44086891 -47.125 32.3125 C-48.0001953 21.72407164 -46.6603591 13.43960397 -40 5 C-29.10429554 -6.62522247 -13.40272675 -7.23747245 0 0 Z "
    fill="#FFF" transform="translate(378.125,202.6875)" />
  <path
    d="M0 0 C5.83417631 4.71559363 10.32014641 11.01027332 11.703125 18.4921875 C12.54698201 28.70147391 11.37323112 37.0699052 5.015625 45.3046875 C-1.318689 52.06979867 -9.62442449 54.9669606 -18.671875 55.8046875 C-28.20124276 54.98319028 -35.632564 51.68512041 -42.0546875 44.53515625 C-48.66866775 36.17981405 -49.1691266 27.93712438 -48.296875 17.4921875 C-46.45876888 9.8976173 -41.40557096 3.33233239 -35.01953125 -1.08203125 C-23.72915824 -7.63833771 -10.99474264 -7.21763717 0 0 Z "
    fill="#FFF" transform="translate(169.296875,203.5078125)" />
</svg>