<?xml version="1.0" encoding="UTF-8"?>
<svg version="1.1" xmlns="http://www.w3.org/2000/svg" width="512" height="512">
  <path
    d="M0 0 C15.67188031 13.62012996 26.66524833 32.59917186 28.34033203 53.53955078 C29.67574737 79.22222507 23.26730821 100.05747787 6.07375431 119.31939125 C1.12686051 124.80016925 -4.03007792 130.04547634 -9.25038147 135.26473999 C-10.26735112 136.28501856 -11.28411106 137.30550619 -12.30068201 138.32618201 C-15.06746772 141.1028766 -17.83729765 143.87651615 -20.60770619 146.6495955 C-23.6053756 149.65120065 -26.60022132 152.65562118 -29.59550476 155.65960693 C-36.80983212 162.89359289 -44.02891299 170.12282592 -51.24861613 177.35144609 C-54.65336948 180.76059419 -58.05763823 184.17022613 -61.46197319 187.57979202 C-72.78286018 198.91767013 -84.10499364 210.25430133 -95.43074894 221.58731651 C-98.36212664 224.52060385 -101.29349896 227.45389656 -104.22485352 230.38720703 C-104.95335675 231.11619401 -105.68185999 231.84518099 -106.43243908 232.59625848 C-118.25414667 244.4262806 -130.06730119 256.26480547 -141.87694008 268.10687427 C-154.01515395 280.27814763 -166.1608742 292.44188897 -178.31403059 304.5982424 C-185.13231836 311.41869478 -191.94727994 318.24239961 -198.75386238 325.07453537 C-204.5444771 330.88684064 -210.34185406 336.69229197 -216.1481889 342.4888951 C-219.10920967 345.44536836 -222.06690391 348.40497885 -225.01594162 351.37340927 C-227.71707046 354.09214707 -230.4273183 356.80143813 -233.14502805 359.50359841 C-234.58789024 360.94295688 -236.02091759 362.39215355 -237.45353466 363.84170949 C-243.55824887 369.88602442 -249.09680665 374.24204473 -257.69456482 376.05276489 C-258.55921356 376.24048462 -259.4238623 376.42820435 -260.31471252 376.62161255 C-261.23493698 376.8098056 -262.15516144 376.99799866 -263.10327148 377.19189453 C-264.5902655 377.50981964 -264.5902655 377.50981964 -266.1072998 377.83416748 C-269.36239572 378.52744984 -272.62051868 379.20518548 -275.87890625 379.8828125 C-278.15540307 380.36457766 -280.43169108 380.84733051 -282.70777893 381.33102417 C-288.68798083 382.59918526 -294.67085964 383.85423504 -300.65441895 385.10644531 C-306.72761564 386.37969117 -312.79829488 387.66481886 -318.86914062 388.94921875 C-325.70010409 390.39378286 -332.53131689 391.8370818 -339.36436462 393.27175903 C-340.4069191 393.49070831 -341.44947357 393.70965759 -342.52362061 393.9352417 C-344.45410964 394.34044667 -346.38468947 394.74521943 -348.31538391 395.14944458 C-353.19938513 396.17458757 -358.0725918 397.23284302 -362.93498325 398.35644341 C-369.17189325 399.61660369 -375.63614396 399.77479617 -381.4453125 397.125 C-387.67149133 391.05846678 -387.67149133 391.05846678 -388.11728382 386.18864155 C-388.12175474 378.93896971 -387.29091035 372.28562148 -385.72729492 365.2175293 C-385.49802811 364.13462112 -385.26876129 363.05171295 -385.032547 361.93598938 C-384.27979094 358.39604299 -383.50950682 354.86018317 -382.73828125 351.32421875 C-382.20651389 348.84725758 -381.67562909 346.3701068 -381.14558411 343.89277649 C-380.0359627 338.71939781 -378.91833205 333.54781904 -377.79370117 328.37768555 C-376.49715083 322.41679818 -375.21436011 316.45308039 -373.9391796 310.48758763 C-372.70625016 304.72066258 -371.46502874 298.95554898 -370.21981239 293.1912632 C-369.69292504 290.74966448 -369.16787146 288.30766928 -368.64470482 285.86527061 C-367.91242821 282.45375648 -367.17079834 279.04440971 -366.42651367 275.63549805 C-366.21288177 274.6322348 -365.99924988 273.62897156 -365.77914429 272.5953064 C-365.5730806 271.66064041 -365.36701691 270.72597443 -365.15470886 269.76298523 C-364.98048999 268.95909709 -364.80627111 268.15520895 -364.62677288 267.32696056 C-362.06107837 258.43980241 -357.28667117 253.58272011 -350.77688599 247.12940979 C-349.7143922 246.06158809 -348.65276988 244.99289868 -347.59194362 243.92342037 C-344.67977523 240.99262896 -341.7552722 238.07442571 -338.82854891 235.15817869 C-335.67186523 232.00848831 -332.52670454 228.84732694 -329.38002014 225.68765259 C-323.21437566 219.50036153 -317.03788604 213.32400772 -310.85734375 207.15160174 C-305.83127577 202.13183534 -300.80894206 197.10836152 -295.78924179 192.08222771 C-295.0745831 191.36666736 -294.3599244 190.65110701 -293.62360939 189.91386301 C-292.17169985 188.46010224 -290.71979598 187.00633581 -289.26789771 185.55256378 C-275.64909875 171.91718256 -262.01767203 158.29448085 -248.38216208 144.67581373 C-235.92121361 132.2295464 -223.47496089 119.76870413 -211.03579165 107.30067313 C-198.25459733 94.49004547 -185.46417438 81.6887021 -172.66348732 68.897551 C-171.2138245 67.4489107 -169.76417563 66.00025644 -168.31454086 64.55158806 C-167.60135052 63.83887411 -166.88816019 63.12616016 -166.15335802 62.39184882 C-161.14122938 57.38187999 -156.13509576 52.36596909 -151.13135147 47.34762764 C-145.02448783 41.22319757 -138.90880704 35.10773834 -132.78181489 29.00344271 C-129.65900675 25.89174032 -126.54024542 22.77626146 -123.43234062 19.64966774 C-120.58053607 16.78093666 -117.71720175 13.9242389 -114.84469651 11.07624041 C-113.81398113 10.05036923 -112.78735113 9.02037111 -111.76555718 7.98561365 C-81.73265301 -22.40029833 -34.16353166 -26.66421983 0 0 Z M-91.515625 35.08984375 C-92.2783371 35.85680069 -93.04104919 36.62375763 -93.82687378 37.41395569 C-96.22774723 39.83143314 -98.61789354 42.25919749 -101.0078125 44.6875 C-102.64773517 46.34249311 -104.28835426 47.99679643 -105.9296875 49.65039062 C-109.92213674 53.67566615 -113.90586667 57.70940956 -117.8828125 61.75 C-116.22676363 66.04505763 -112.98732944 68.91153042 -109.78076172 72.07910156 C-109.15624115 72.70391418 -108.53172058 73.32872681 -107.88827515 73.97247314 C-105.826056 76.03330069 -103.7568466 78.08695653 -101.6875 80.140625 C-100.25502703 81.56936725 -98.82299543 82.99855215 -97.39138794 84.42816162 C-93.62449766 88.18742017 -89.85163957 91.94063357 -86.07751465 95.69262695 C-82.22644519 99.52322817 -78.38103979 103.35950595 -74.53515625 107.1953125 C-66.98991316 114.71911378 -59.43835439 122.23654202 -51.8828125 129.75 C-50.78077912 128.81326323 -49.67988361 127.87518774 -48.57945251 126.93656921 C-47.96626632 126.41432612 -47.35308012 125.89208303 -46.72131252 125.3540144 C-43.89853814 122.89126177 -41.23296898 120.28193642 -38.57421875 117.64453125 C-38.00380356 117.07981613 -37.43338837 116.51510101 -36.84568787 115.93327332 C-35.64859784 114.7455561 -34.45289794 113.55643627 -33.25854492 112.3659668 C-31.46004454 110.5771527 -29.65113104 108.79933047 -27.84179688 107.02148438 C-15.11224568 94.4102345 -4.72930345 81.97021496 -4.5703125 63.25 C-4.54648752 50.05758165 -8.47447604 39.79917011 -17.3828125 30 C-18.2078125 29.2575 -19.0328125 28.515 -19.8828125 27.75 C-20.7696875 26.925 -21.6565625 26.1 -22.5703125 25.25 C-45.4068342 6.64028951 -72.99383943 16.16637618 -91.515625 35.08984375 Z M-146.06941795 89.65699005 C-146.72929502 90.30548463 -147.38917208 90.95397922 -148.06904542 91.62212515 C-149.15929802 92.70883812 -149.15929802 92.70883812 -150.27157593 93.81750488 C-151.4275929 94.9582584 -151.4275929 94.9582584 -152.60696375 96.12205744 C-155.20820168 98.69170838 -157.80209235 101.26865041 -160.39599609 103.84570312 C-162.25149885 105.68213926 -164.10735741 107.51821597 -165.96354675 109.35395813 C-171.54981285 114.88158802 -177.12594328 120.41938661 -182.69984955 125.95947623 C-184.27504939 127.52508713 -185.85043751 129.09050836 -187.42586946 130.6558857 C-197.21256139 140.38060502 -206.99495501 150.10963453 -216.76744652 159.84862518 C-219.03273113 162.1060109 -221.29806917 164.36334298 -223.56347656 166.62060547 C-224.12652251 167.18163469 -224.68956846 167.74266392 -225.2696764 168.32069403 C-234.37514004 177.39220225 -243.50442446 186.43934227 -252.64369445 195.47677737 C-262.03181022 204.76114468 -271.39694509 214.06821234 -280.74057066 223.39735556 C-285.98497854 228.63246005 -291.2389248 233.85713203 -296.51899338 239.05628967 C-301.02002376 243.48843076 -305.49981962 247.94075112 -309.95392393 252.4200685 C-312.2242351 254.7019709 -314.50593695 256.96980643 -316.80895424 259.21875954 C-327.30238871 269.47898523 -334.14347047 276.88222272 -335.8828125 291.75 C-336.40916729 294.37349368 -337.0168923 296.97023121 -337.62207031 299.57739258 C-337.90761705 300.90052153 -338.19116549 302.22408805 -338.47052002 303.54853821 C-338.61174538 304.21658289 -338.75297073 304.88462757 -338.89847565 305.57291603 C-339.11501926 306.59836556 -339.11501926 306.59836556 -339.3359375 307.64453125 C-339.64394022 309.09424766 -339.95211028 310.54392852 -340.26043701 311.99357605 C-340.89751482 314.99214761 -341.53253432 317.99114517 -342.16601562 320.99047852 C-342.97785975 324.83340642 -343.79515347 328.67515265 -344.61394119 332.51660633 C-345.24751044 335.49206141 -345.87820305 338.46812049 -346.50801849 341.44437218 C-346.80853903 342.86275039 -347.1099678 344.28093649 -347.41233063 345.69892311 C-347.83153616 347.66690395 -348.24643901 349.63579984 -348.66113281 351.60473633 C-348.89777649 352.72229813 -349.13442017 353.83985992 -349.37823486 354.99128723 C-349.97277179 357.77442782 -349.97277179 357.77442782 -349.8828125 360.75 C-341.0996617 360.03155968 -332.58867811 358.11229178 -323.9921875 356.2578125 C-322.35795752 355.90757858 -320.72370005 355.55747292 -319.0894165 355.20748901 C-315.6796796 354.47600795 -312.27076271 353.74083393 -308.86230469 353.00341797 C-304.5009794 352.06048386 -300.13706417 351.13018035 -295.77236557 350.20300484 C-292.40294092 349.48520695 -289.03535173 348.75907827 -285.66822052 348.03060532 C-284.05974828 347.68399102 -282.45063413 347.34034129 -280.84087372 346.99975967 C-278.59212787 346.52302948 -276.34619891 346.03470284 -274.10058594 345.54345703 C-272.82423279 345.26889679 -271.54787964 344.99433655 -270.23284912 344.7114563 C-263.29679874 342.72081856 -259.13713715 338.28531557 -254.18229675 333.28999329 C-253.41440034 332.52380572 -252.64650392 331.75761815 -251.85533792 330.96821278 C-249.28183749 328.39800826 -246.71555349 325.82071758 -244.14916992 323.2434082 C-242.30652087 321.40019506 -240.46343142 319.5574221 -238.61993408 317.71505737 C-234.65085412 313.74702541 -230.68544848 309.77535206 -226.72252464 305.80117226 C-220.99281967 300.05520372 -215.25759103 294.31477476 -209.52100519 288.57567682 C-200.21361786 279.26391373 -190.91070435 269.94769436 -181.6105957 260.62866211 C-172.57713386 251.57683838 -163.54157096 242.52712048 -154.50317383 233.48022461 C-153.66729199 232.64355461 -153.66729199 232.64355461 -152.81452366 231.78998218 C-150.01888994 228.99173835 -147.22321485 226.19353586 -144.4275192 223.39535391 C-121.23953377 200.1866397 -98.05880585 176.97068949 -74.8828125 153.75 C-75.81944495 152.6473378 -76.75752552 151.54590561 -77.6961937 150.44497585 C-78.21842758 149.83148075 -78.74066146 149.21798564 -79.27872062 148.58589977 C-81.75068556 145.7567103 -84.38327575 143.10202818 -87.04003906 140.44750977 C-87.62291687 139.86127335 -88.20579468 139.27503693 -88.80633545 138.67103577 C-90.70942799 136.75853997 -92.61617831 134.84974621 -94.5234375 132.94140625 C-95.85535852 131.60626879 -97.1872055 130.27105745 -98.51898193 128.93577576 C-101.29766755 126.15112814 -104.07838614 123.36852898 -106.86035156 120.5871582 C-110.43221345 117.01539859 -113.99710912 113.4367707 -117.56033707 109.85640049 C-120.30204559 107.10361051 -123.04824935 104.3553399 -125.79576874 101.60835075 C-127.11314106 100.28979557 -128.42888569 98.96961213 -129.74298859 97.64779854 C-131.5716975 95.80935363 -133.40655842 93.9772798 -135.24316406 92.14672852 C-136.0598053 91.32165802 -136.0598053 91.32165802 -136.89294434 90.47991943 C-140.87196786 86.5343476 -142.01906036 85.64737243 -146.06941795 89.65699005 Z "
    fill="#FFF" transform="translate(435.8828125,65.25)" />
</svg>