<?xml version="1.0" encoding="UTF-8"?>
<svg version="1.1" xmlns="http://www.w3.org/2000/svg" width="512" height="512">
  <path
    d="M0 0 C4.47870656 2.15937638 7.18198188 4.92952939 10 9 C12.17245632 15.51736897 11.15468052 21.88902379 9.5 28.4375 C7.32998207 37.13804357 7.67143768 45.19827466 9 54 C10.670625 54.1546875 10.670625 54.1546875 12.375 54.3125 C13.57125 54.539375 14.7675 54.76625 16 55 C18.43860588 58.65790882 18.84734023 61.74618084 18 66 C15.75 68.5 15.75 68.5 13 70 C11.68 70 10.36 70 9 70 C9 75.61 9 81.22 9 87 C11.248125 87.226875 13.49625 87.45375 15.8125 87.6875 C41.82019795 90.74419784 67.83465543 100.93216859 88.63720703 116.86425781 C92.42790549 120.01416879 92.42790549 120.01416879 97 121 C99.70522638 118.90370683 99.70522638 118.90370683 102.25 116.0625 C103.58804688 114.65677734 103.58804688 114.65677734 104.953125 113.22265625 C105.62859375 112.48917969 106.3040625 111.75570312 107 111 C106.50306641 109.85724609 106.50306641 109.85724609 105.99609375 108.69140625 C104.72660424 105.26129539 104.89127599 103.47400188 106 100 C108.125 97.5625 108.125 97.5625 111 96 C114.6404233 96.18829776 117.55232893 96.85077631 121 98 C129.02718943 94.34571757 133.3352543 88.11343681 137.96875 80.9609375 C138.6596875 79.90132813 139.350625 78.84171875 140.0625 77.75 C140.69285156 76.75484375 141.32320313 75.7596875 141.97265625 74.734375 C144.79461736 70.92826174 147.48777139 68.5040762 152 67 C158.44100476 66.22504676 163.72172648 67.09503294 169 71 C173.00430545 76.03105044 174.45125512 80.26671576 174.328125 86.59765625 C173.60096977 91.9214713 170.8414305 95.48579234 166.7578125 98.84375 C163.44089056 101.19969456 160.03411843 103.36859115 156.5625 105.48828125 C150.66917219 109.18156607 145.7547465 113.38501671 143.21875 120.0546875 C142.75187161 122.32569499 142.75187161 122.32569499 145 125 C144.81959499 128.3675602 144.63894716 130.99113606 142.8125 133.875 C140.17407324 135.51264419 138.09542433 135.81791622 135 136 C133.02 135.34 131.04 134.68 129 134 C125.7 137.3 122.4 140.6 119 144 C121.23124224 148.1835792 123.65355269 151.879805 126.5625 155.625 C142.54379478 177.49883922 152.17829064 205.03870154 154 232 C159.61 232 165.22 232 171 232 C171.33 230.02 171.66 228.04 172 226 C173.0625 224.125 173.0625 224.125 175 223 C181.86925795 222.23674912 181.86925795 222.23674912 185.5 224.6875 C187.24633224 227.37976221 187.34982212 228.85160094 187 232 C195.80172534 233.32856232 203.86195643 233.67001793 212.5625 231.5 C219.42445815 229.78858526 225.51247531 228.81555765 232.3125 231.125 C236.08952297 233.76013231 238.91624735 236.8324947 241 241 C241.5072965 246.55531248 241.76260422 251.41830236 239.3125 256.5 C235.67925226 260.4278354 232.50679622 263.6479664 226.9765625 264.203125 C221.90979571 264.30412367 217.48343527 263.7434306 212.5625 262.5 C203.86195643 260.32998207 195.80172534 260.67143768 187 262 C186.896875 263.11375 186.79375 264.2275 186.6875 265.375 C186.3471875 267.169375 186.3471875 267.169375 186 269 C182.34209118 271.43860588 179.25381916 271.84734023 175 271 C172.5 268.75 172.5 268.75 171 266 C171 264.68 171 263.36 171 262 C165.39 262 159.78 262 154 262 C153.6596875 265.3721875 153.6596875 265.3721875 153.3125 268.8125 C150.14823106 295.73545908 139.33155252 321.64798157 123.03125 343.21484375 C121.40075971 345.45049679 120.11574225 347.48351613 119 350 C122.07083022 353.70551121 125.12569722 357.12395072 129 360 C131.75015329 360.12500697 133.46421741 359.56795214 136.0234375 358.609375 C138 358 138 358 140.9375 359.1875 C143 361 143 361 145 364 C144.68372903 367.54223486 144.12451909 370.62644274 143 374 C146.579718 381.86339727 152.64480971 386.32082395 159.78125 390.7109375 C171.67819899 398.03459696 171.67819899 398.03459696 174 405 C174.77495324 411.44100476 173.90496706 416.72172648 170 422 C164.97447 425.99991163 160.72331195 427.48223194 154.390625 427.30859375 C149.92978953 426.73276695 147.19424286 425.15868543 144 422 C140.75183813 417.76456277 137.96302584 413.20841748 135.10595703 408.70556641 C131.38186104 402.96240204 127.36221076 398.66056086 121 396 C118.45704762 396.76709799 118.45704762 396.76709799 116 398 C112.59556789 397.82390868 110.03309091 397.65429091 107.125 395.8125 C105.49748579 393.19039376 105.18422696 391.07044927 105 388 C105.61795601 386.31466544 106.27846272 384.64365634 107 383 C105.4324482 381.2978302 103.84540216 379.61359446 102.25 377.9375 C101.36828125 376.99777344 100.4865625 376.05804688 99.578125 375.08984375 C97.29903783 372.81759188 97.29903783 372.81759188 95.04296875 372.91796875 C92.15585392 374.44709076 89.64302374 376.39061704 87.0625 378.375 C65.58680743 394.14450748 36.07455583 407 9 407 C9 412.61 9 418.22 9 424 C10.98 424.33 12.96 424.66 15 425 C16.875 426.0625 16.875 426.0625 18 428 C18.76325088 434.86925795 18.76325088 434.86925795 16.3125 438.5 C13.62023779 440.24633224 12.14839906 440.34982212 9 440 C7.67143768 448.80172534 7.32998207 456.86195643 9.5 465.5625 C11.21141474 472.42445815 12.18444235 478.51247531 9.875 485.3125 C7.23986769 489.08952297 4.1675053 491.91624735 0 494 C-5.55531248 494.5072965 -10.41830236 494.76260422 -15.5 492.3125 C-19.4278354 488.67925226 -22.6479664 485.50679622 -23.203125 479.9765625 C-23.30412367 474.90979571 -22.7434306 470.48343527 -21.5 465.5625 C-19.32998207 456.86195643 -19.67143768 448.80172534 -21 440 C-22.11375 439.896875 -23.2275 439.79375 -24.375 439.6875 C-25.57125 439.460625 -26.7675 439.23375 -28 439 C-30.43860588 435.34209118 -30.84734023 432.25381916 -30 428 C-27.75 425.5 -27.75 425.5 -25 424 C-23.68 424 -22.36 424 -21 424 C-21 418.39 -21 412.78 -21 407 C-24.3721875 406.6596875 -24.3721875 406.6596875 -27.8125 406.3125 C-54.73545908 403.14823106 -80.64798157 392.33155252 -102.21484375 376.03125 C-104.45049679 374.40075971 -106.48351613 373.11574225 -109 372 C-112.70551121 375.07083022 -116.12395072 378.12569722 -119 382 C-119.12500697 384.75015329 -118.56795214 386.46421741 -117.609375 389.0234375 C-117 391 -117 391 -118.1875 393.9375 C-120 396 -120 396 -123 398 C-126.54223486 397.68372903 -129.62644274 397.12451909 -133 396 C-142.9561217 400.53240588 -147.82544663 409.47676893 -153.19140625 418.484375 C-155.99544892 422.3845985 -159.52086695 425.22626331 -164 427 C-169.60691835 427.90638154 -174.33724525 427.04043145 -179.2734375 424.27734375 C-182.89003281 421.60171781 -184.60898025 418.17305926 -186 414 C-186.60636481 408.87075014 -186.50148672 404.21637328 -183.5859375 399.75 C-179.36560709 395.09308369 -173.7956409 391.73747776 -168.4921875 388.44140625 C-162.61835822 384.76777404 -157.74533937 380.59024255 -155.21875 373.9453125 C-154.75187161 371.67430501 -154.75187161 371.67430501 -157 369 C-156.81959499 365.6324398 -156.63894716 363.00886394 -154.8125 360.125 C-152.19039376 358.49748579 -150.07044927 358.18422696 -147 358 C-145.31466544 358.61795601 -143.64365634 359.27846272 -142 360 C-140.2978302 358.4324482 -138.61359446 356.84540216 -136.9375 355.25 C-135.99777344 354.36828125 -135.05804688 353.4865625 -134.08984375 352.578125 C-131.81759188 350.29903783 -131.81759188 350.29903783 -131.91796875 348.04296875 C-133.44709076 345.15585392 -135.39061704 342.64302374 -137.375 340.0625 C-153.89144637 317.56958923 -164.11888715 289.84047021 -166 262 C-171.61 262 -177.22 262 -183 262 C-183.33 263.98 -183.66 265.96 -184 268 C-185.0625 269.875 -185.0625 269.875 -187 271 C-193.86925795 271.76325088 -193.86925795 271.76325088 -197.5 269.3125 C-199.24633224 266.62023779 -199.34982212 265.14839906 -199 262 C-207.80172534 260.67143768 -215.86195643 260.32998207 -224.5625 262.5 C-231.42445815 264.21141474 -237.51247531 265.18444235 -244.3125 262.875 C-248.08952297 260.23986769 -250.91624735 257.1675053 -253 253 C-253.5072965 247.44468752 -253.76260422 242.58169764 -251.3125 237.5 C-247.67925226 233.5721646 -244.50679622 230.3520336 -238.9765625 229.796875 C-233.90979571 229.69587633 -229.48343527 230.2565694 -224.5625 231.5 C-215.86195643 233.67001793 -207.80172534 233.32856232 -199 232 C-198.896875 230.88625 -198.79375 229.7725 -198.6875 228.625 C-198.460625 227.42875 -198.23375 226.2325 -198 225 C-194.34209118 222.56139412 -191.25381916 222.15265977 -187 223 C-184.5 225.25 -184.5 225.25 -183 228 C-183 229.32 -183 230.64 -183 232 C-177.39 232 -171.78 232 -166 232 C-165.773125 229.751875 -165.54625 227.50375 -165.3125 225.1875 C-162.25580216 199.17980205 -152.06783141 173.16534457 -136.13574219 152.36279297 C-132.98583121 148.57209451 -132.98583121 148.57209451 -132 144 C-134.09629317 141.29477362 -134.09629317 141.29477362 -136.9375 138.75 C-138.34322266 137.41195312 -138.34322266 137.41195312 -139.77734375 136.046875 C-140.51082031 135.37140625 -141.24429688 134.6959375 -142 134 C-142.76183594 134.33128906 -143.52367187 134.66257813 -144.30859375 135.00390625 C-147.73870461 136.27339576 -149.52599812 136.10872401 -153 135 C-155.4375 132.875 -155.4375 132.875 -157 130 C-156.81170224 126.3595767 -156.14922369 123.44767107 -155 120 C-158.579718 112.13660273 -164.64480971 107.67917605 -171.78125 103.2890625 C-183.67819899 95.96540304 -183.67819899 95.96540304 -186 89 C-186.77495324 82.55899524 -185.90496706 77.27827352 -182 72 C-176.89954011 67.94045029 -172.73555453 66.63565539 -166.34765625 66.71875 C-161.5233179 67.29670734 -158.18123167 69.62847168 -155.01171875 73.30859375 C-153.05542037 75.92585507 -151.32665257 78.58684625 -149.625 81.375 C-145.09922301 88.52957937 -141.00862434 94.65093891 -133 98 C-130.45704762 97.23290201 -130.45704762 97.23290201 -128 96 C-124.59556789 96.17609132 -122.03309091 96.34570909 -119.125 98.1875 C-117.49748579 100.80960624 -117.18422696 102.92955073 -117 106 C-117.61795601 107.68533456 -118.27846272 109.35634366 -119 111 C-117.4324482 112.7021698 -115.84540216 114.38640554 -114.25 116.0625 C-113.36828125 117.00222656 -112.4865625 117.94195312 -111.578125 118.91015625 C-109.29903783 121.18240812 -109.29903783 121.18240812 -107.04296875 121.08203125 C-104.15585392 119.55290924 -101.64302374 117.60938296 -99.0625 115.625 C-76.56958923 99.10855363 -48.84047021 88.88111285 -21 87 C-21 81.39 -21 75.78 -21 70 C-23.97 69.505 -23.97 69.505 -27 69 C-28.875 67.9375 -28.875 67.9375 -30 66 C-30.76325088 59.13074205 -30.76325088 59.13074205 -28.3125 55.5 C-25.62023779 53.75366776 -24.14839906 53.65017788 -21 54 C-19.67143768 45.19827466 -19.32998207 37.13804357 -21.5 28.4375 C-23.21141474 21.57554185 -24.18444235 15.48752469 -21.875 8.6875 C-16.09152477 0.39785217 -9.72132087 -0.91614542 0 0 Z M9 131 C9 150.14 9 169.28 9 189 C13.62 190.65 18.24 192.3 23 194 C26.49029804 192.25485098 28.18257363 191.06966827 30.85058594 188.40820312 C31.59105164 187.67404175 32.33151733 186.93988037 33.09442139 186.18347168 C33.88310608 185.39073853 34.67179077 184.59800537 35.484375 183.78125 C36.29996887 182.96756958 37.11556274 182.15388916 37.95587158 181.31555176 C39.67632978 179.59645354 41.3942689 177.87483106 43.10986328 176.15087891 C45.74680932 173.50320366 48.3942738 170.86638469 51.04296875 168.23046875 C52.71157942 166.560537 54.37956986 164.88998522 56.046875 163.21875 C56.84365662 162.42601685 57.64043823 161.63328369 58.46136475 160.81652832 C59.1892218 160.08236694 59.91707886 159.34820557 60.66699219 158.59179688 C61.31222839 157.94496948 61.9574646 157.29814209 62.62225342 156.63171387 C64.21504705 155.10124118 64.21504705 155.10124118 64 153 C62.00929828 151.49393752 60.04325358 150.14180562 57.9375 148.8125 C57.30553711 148.41321289 56.67357422 148.01392578 56.02246094 147.60253906 C41.4129285 138.57158488 26.05785893 133.13223237 9 131 Z M-76 153 C-74.58681431 156.19191778 -72.8922465 158.37785059 -70.45581055 160.86645508 C-69.73133224 161.61014847 -69.00685394 162.35384186 -68.26042175 163.12007141 C-67.08543877 164.30780403 -67.08543877 164.30780403 -65.88671875 165.51953125 C-64.67687065 166.74647957 -64.67687065 166.74647957 -63.44258118 167.99821472 C-61.73645151 169.72322113 -60.02740643 171.44534819 -58.31567383 173.16479492 C-55.69383254 175.8061204 -53.09406644 178.46798255 -50.49414062 181.13085938 C-48.83465631 182.80339702 -47.17389153 184.47466538 -45.51171875 186.14453125 C-44.73446945 186.94647415 -43.95722015 187.74841705 -43.15641785 188.57466125 C-42.05551567 189.66656013 -42.05551567 189.66656013 -40.93237305 190.78051758 C-40.29220749 191.4279744 -39.65204193 192.07543121 -38.99247742 192.74250793 C-36.66638294 194.53058275 -36.66638294 194.53058275 -32 193 C-28.37 191.35 -24.74 189.7 -21 188 C-21 169.19 -21 150.38 -21 131 C-40.69762036 131 -60.18275605 142.4551707 -76 153 Z M84.3611908 177.51855469 C83.6528157 178.22915039 82.94444061 178.93974609 82.21459961 179.671875 C81.41384506 180.47270508 80.61309052 181.27353516 79.78807068 182.09863281 C78.91828079 182.97358398 78.04849091 183.84853516 77.15234375 184.75 C76.2659169 185.6378418 75.37949005 186.52568359 74.46620178 187.44042969 C72.10529074 189.80600484 69.74656762 192.17372025 67.38885498 194.54248047 C64.98434648 196.95720198 62.57701922 199.36910964 60.16992188 201.78125 C55.44399831 206.51823033 50.72093694 211.2580502 46 216 C46.97605507 218.48043354 47.95567663 220.95935085 48.9375 223.4375 C49.21529297 224.14455078 49.49308594 224.85160156 49.77929688 225.58007812 C50.96222034 229.04673881 50.96222034 229.04673881 53 232 C54.77991924 232.09370624 56.56356739 232.11744271 58.34594727 232.11352539 C59.4870546 232.11344986 60.62816193 232.11337433 61.80384827 232.11329651 C63.66631447 232.10555458 63.66631447 232.10555458 65.56640625 232.09765625 C66.83016586 232.0962413 68.09392548 232.09482635 69.39598083 232.09336853 C72.76124889 232.08870582 76.1264499 232.0797148 79.49169922 232.06866455 C82.9234967 232.05844846 86.35530109 232.05387049 89.78710938 232.04882812 C96.52475824 232.0377738 103.26237525 232.0210171 110 232 C107.90407261 219.53150361 107.90407261 219.53150361 104.3125 207.4375 C104.06048828 206.74406494 103.80847656 206.05062988 103.54882812 205.33618164 C99.56821088 194.783949 94.25440679 184.6699008 87 176 C85.7498824 175.8867196 85.7498824 175.8867196 84.3611908 177.51855469 Z M-100 177 C-101.50606248 178.99070172 -102.85819438 180.95674642 -104.1875 183.0625 C-104.58678711 183.69446289 -104.98607422 184.32642578 -105.39746094 184.97753906 C-114.42841512 199.5870715 -119.86776763 214.94214107 -122 232 C-103.19 232 -84.38 232 -65 232 C-60.04328183 222.20107083 -60.04328183 222.20107083 -59 216 C-60.3190194 213.79778013 -60.3190194 213.79778013 -62.43481445 211.85229492 C-63.20924393 211.07186325 -63.9836734 210.29143158 -64.78157043 209.48735046 C-65.633535 208.6600795 -66.48549957 207.83280853 -67.36328125 206.98046875 C-68.2255986 206.12189774 -69.08791595 205.26332672 -69.97636414 204.3787384 C-71.80304157 202.56551571 -73.63690508 200.75950834 -75.47729492 198.96020508 C-78.30457293 196.19525232 -81.10993254 193.40950743 -83.91210938 190.61914062 C-85.68625956 188.86332905 -87.46161021 187.10872948 -89.23828125 185.35546875 C-90.08417313 184.51807663 -90.930065 183.68068451 -91.80158997 182.81791687 C-92.58547592 182.053246 -93.36936188 181.28857513 -94.17700195 180.50073242 C-94.86840775 179.82298264 -95.55981354 179.14523285 -96.27217102 178.44694519 C-97.87994523 176.78598714 -97.87994523 176.78598714 -100 177 Z M-122 262 C-119.84797307 274.55318258 -119.84797307 274.55318258 -116.3125 286.5625 C-116.06121338 287.25520996 -115.80992676 287.94791992 -115.55102539 288.66162109 C-111.75056888 298.74952165 -106.64096289 308.4912663 -100 317 C-96.77254476 315.58098338 -94.62741893 313.87144235 -92.14941406 311.37646484 C-91.40894836 310.63584808 -90.66848267 309.89523132 -89.90557861 309.13217163 C-89.11689392 308.33316437 -88.32820923 307.5341571 -87.515625 306.7109375 C-86.70003113 305.89251373 -85.88443726 305.07408997 -85.04412842 304.23086548 C-82.44135438 301.61690027 -79.84562238 298.99606495 -77.25 296.375 C-75.4861366 294.60110546 -73.7218191 292.82766234 -71.95703125 291.0546875 C-67.63273864 286.70834858 -63.3142067 282.35634919 -59 278 C-59.43338746 276.64451156 -59.87197995 275.29068724 -60.3125 273.9375 C-60.55613281 273.18339844 -60.79976562 272.42929687 -61.05078125 271.65234375 C-62.22213613 268.37929864 -63.63060504 265.19525491 -65 262 C-83.81 262 -102.62 262 -122 262 Z M53 262 C49.535 269.425 49.535 269.425 46 277 C50.43416672 282.31068805 55.11516686 287.24836617 60.0234375 292.12109375 C60.76961334 292.86585464 61.51578918 293.61061554 62.28457642 294.37794495 C64.64569389 296.73350827 67.01028162 299.08555216 69.375 301.4375 C70.98590856 303.04338763 72.59658796 304.64950516 74.20703125 306.25585938 C78.13537513 310.17323513 82.06656674 314.08773487 86 318 C90.04732064 314.10796865 90.04732064 314.10796865 93.24609375 309.5390625 C93.78520386 308.59667725 93.78520386 308.59667725 94.33520508 307.63525391 C94.6989624 306.97187012 95.06271973 306.30848633 95.4375 305.625 C96.01890747 304.56998291 96.01890747 304.56998291 96.61206055 303.49365234 C103.1966876 291.2914001 110 276.17880803 110 262 C91.19 262 72.38 262 53 262 Z M-38.6388092 300.51855469 C-39.3471843 301.22915039 -40.05555939 301.93974609 -40.78540039 302.671875 C-41.58615494 303.47270508 -42.38690948 304.27353516 -43.21192932 305.09863281 C-44.08171921 305.97358398 -44.95150909 306.84853516 -45.84765625 307.75 C-46.7340831 308.6378418 -47.62050995 309.52568359 -48.53379822 310.44042969 C-50.89470926 312.80600484 -53.25343238 315.17372025 -55.61114502 317.54248047 C-58.01565352 319.95720198 -60.42298078 322.36910964 -62.83007812 324.78125 C-67.55600169 329.51823033 -72.27906306 334.2580502 -77 339 C-73.10796865 343.04732064 -73.10796865 343.04732064 -68.5390625 346.24609375 C-67.91080566 346.60550049 -67.28254883 346.96490723 -66.63525391 347.33520508 C-65.97187012 347.6989624 -65.30848633 348.06271973 -64.625 348.4375 C-63.56998291 349.01890747 -63.56998291 349.01890747 -62.49365234 349.61206055 C-50.2914001 356.1966876 -35.17880803 363 -21 363 C-21 344.19 -21 325.38 -21 306 C-31.44182983 298.66411645 -31.44182983 298.66411645 -38.6388092 300.51855469 Z M16.4375 302.4375 C15.26058594 302.88996094 14.08367187 303.34242188 12.87109375 303.80859375 C10.14863497 304.72400164 10.14863497 304.72400164 9 306 C8.90629376 307.77991924 8.88255729 309.56356739 8.88647461 311.34594727 C8.88655014 312.4870546 8.88662567 313.62816193 8.88670349 314.80384827 C8.89186478 316.0454924 8.89702606 317.28713654 8.90234375 318.56640625 C8.9037587 319.83016586 8.90517365 321.09392548 8.90663147 322.39598083 C8.91129418 325.76124889 8.9202852 329.1264499 8.93133545 332.49169922 C8.94155154 335.9234967 8.94612951 339.35530109 8.95117188 342.78710938 C8.9622262 349.52475824 8.9789829 356.26237525 9 363 C10.91471031 362.68964459 12.82902237 362.3768316 14.74316406 362.06298828 C15.80923889 361.88905548 16.87531372 361.71512268 17.97369385 361.53591919 C34.78149747 358.55947727 50.00188079 350.49025031 64 341 C62.58372032 337.78700915 60.88182508 335.62912109 58.40820312 333.14941406 C57.67404175 332.40894836 56.93988037 331.66848267 56.18347168 330.90557861 C55.39073853 330.11689392 54.59800537 329.32820923 53.78125 328.515625 C52.96756958 327.70003113 52.15388916 326.88443726 51.31555176 326.04412842 C49.59645354 324.32367022 47.87483106 322.6057311 46.15087891 320.89013672 C43.50320366 318.25319068 40.86638469 315.6057262 38.23046875 312.95703125 C36.560537 311.28842058 34.88998522 309.62043014 33.21875 307.953125 C32.42601685 307.15634338 31.63328369 306.35956177 30.81652832 305.53863525 C29.71528625 304.44684967 29.71528625 304.44684967 28.59179688 303.33300781 C27.94496948 302.68777161 27.29814209 302.0425354 26.63171387 301.37774658 C23.33526401 298.59437101 20.06960081 301.03011077 16.4375 302.4375 Z "
    fill="#FEA819" transform="translate(262,9)" />
  <path
    d="M0 0 C1.05832031 -0.00128906 2.11664063 -0.00257813 3.20703125 -0.00390625 C4.87185547 0.00189453 4.87185547 0.00189453 6.5703125 0.0078125 C7.67246094 0.00394531 8.77460938 0.00007812 9.91015625 -0.00390625 C11.50150391 -0.00197266 11.50150391 -0.00197266 13.125 0 C14.09679199 0.00112793 15.06858398 0.00225586 16.06982422 0.00341797 C18.6953125 0.1328125 18.6953125 0.1328125 22.6953125 1.1328125 C22.6953125 20.2728125 22.6953125 39.4128125 22.6953125 59.1328125 C25.0053125 59.4628125 27.3153125 59.7928125 29.6953125 60.1328125 C32.6653125 61.1228125 35.6353125 62.1128125 38.6953125 63.1328125 C51.5653125 50.2628125 64.4353125 37.3928125 77.6953125 24.1328125 C86.91655276 28.74343263 95.43356409 37.36323181 100.6953125 46.1328125 C87.4953125 59.3328125 74.2953125 72.5328125 60.6953125 86.1328125 C62.6753125 91.0828125 64.6553125 96.0328125 66.6953125 101.1328125 C85.5053125 101.4628125 104.3153125 101.7928125 123.6953125 102.1328125 C124.98064045 104.7034684 124.82477988 106.56213464 124.828125 109.4375 C124.82941406 110.49582031 124.83070313 111.55414063 124.83203125 112.64453125 C124.82816406 113.75441406 124.82429687 114.86429687 124.8203125 116.0078125 C124.82417969 117.10996094 124.82804688 118.21210938 124.83203125 119.34765625 C124.83009766 120.93900391 124.83009766 120.93900391 124.828125 122.5625 C124.82699707 123.53429199 124.82586914 124.50608398 124.82470703 125.50732422 C124.6953125 128.1328125 124.6953125 128.1328125 123.6953125 132.1328125 C95.4803125 132.6278125 95.4803125 132.6278125 66.6953125 133.1328125 C63.5111732 140.56386523 63.5111732 140.56386523 60.6953125 148.1328125 C73.8953125 161.3328125 87.0953125 174.5328125 100.6953125 188.1328125 C96.8240047 193.29455624 93.55639561 197.52873209 89.0703125 201.9453125 C88.14992188 202.85925781 87.22953125 203.77320313 86.28125 204.71484375 C84.16107446 206.69730396 82.06163361 208.46083444 79.6953125 210.1328125 C76.46785726 208.71379588 74.32273143 207.00425485 71.84472656 204.50927734 C71.10426086 203.76866058 70.36379517 203.02804382 69.60089111 202.26498413 C68.81220642 201.46597687 68.02352173 200.6669696 67.2109375 199.84375 C66.39534363 199.02532623 65.57974976 198.20690247 64.73944092 197.36367798 C62.13666688 194.74971277 59.54093488 192.12887745 56.9453125 189.5078125 C55.1814491 187.73391796 53.4171316 185.96047484 51.65234375 184.1875 C47.32805114 179.84116108 43.0095192 175.48916169 38.6953125 171.1328125 C38.11523438 171.32617188 37.53515625 171.51953125 36.9375 171.71875 C32.5234375 173.19010417 28.109375 174.66145833 23.6953125 176.1328125 C23.3653125 194.9428125 23.0353125 213.7528125 22.6953125 233.1328125 C19.20868249 234.00447 16.66630753 234.26151471 13.125 234.265625 C12.06410156 234.26691406 11.00320313 234.26820313 9.91015625 234.26953125 C8.80800781 234.26566406 7.70585937 234.26179687 6.5703125 234.2578125 C4.90548828 234.26361328 4.90548828 234.26361328 3.20703125 234.26953125 C1.61955078 234.26759766 1.61955078 234.26759766 0 234.265625 C-0.96953613 234.26449707 -1.93907227 234.26336914 -2.93798828 234.26220703 C-5.3046875 234.1328125 -5.3046875 234.1328125 -7.3046875 233.1328125 C-7.6346875 214.3228125 -7.9646875 195.5128125 -8.3046875 176.1328125 C-15.73574023 172.9486732 -15.73574023 172.9486732 -23.3046875 170.1328125 C-36.5046875 183.3328125 -49.7046875 196.5328125 -63.3046875 210.1328125 C-68.46643124 206.2615047 -72.70060709 202.99389561 -77.1171875 198.5078125 C-78.03113281 197.58742188 -78.94507813 196.66703125 -79.88671875 195.71875 C-81.86917896 193.59857446 -83.63270944 191.49913361 -85.3046875 189.1328125 C-83.88567088 185.90535726 -82.17612985 183.76023143 -79.68115234 181.28222656 C-78.94053558 180.54176086 -78.19991882 179.80129517 -77.43685913 179.03839111 C-76.23834824 177.85536407 -76.23834824 177.85536407 -75.015625 176.6484375 C-74.19720123 175.83284363 -73.37877747 175.01724976 -72.53555298 174.17694092 C-69.92158777 171.57416688 -67.30075245 168.97843488 -64.6796875 166.3828125 C-62.90579296 164.6189491 -61.13234984 162.8546316 -59.359375 161.08984375 C-55.01303608 156.76555114 -50.66103669 152.4470192 -46.3046875 148.1328125 C-46.49804688 147.55273438 -46.69140625 146.97265625 -46.890625 146.375 C-48.36197917 141.9609375 -49.83333333 137.546875 -51.3046875 133.1328125 C-70.1146875 132.8028125 -88.9246875 132.4728125 -108.3046875 132.1328125 C-109.176345 128.64618249 -109.43338971 126.10380753 -109.4375 122.5625 C-109.43878906 121.50160156 -109.44007813 120.44070313 -109.44140625 119.34765625 C-109.43753906 118.24550781 -109.43367187 117.14335937 -109.4296875 116.0078125 C-109.43355469 114.89792969 -109.43742188 113.78804688 -109.44140625 112.64453125 C-109.44011719 111.58621094 -109.43882812 110.52789062 -109.4375 109.4375 C-109.43637207 108.46796387 -109.43524414 107.49842773 -109.43408203 106.49951172 C-109.3046875 104.1328125 -109.3046875 104.1328125 -108.3046875 102.1328125 C-80.0896875 101.6378125 -80.0896875 101.6378125 -51.3046875 101.1328125 C-49.6546875 96.8428125 -48.0046875 92.5528125 -46.3046875 88.1328125 C-48.05898393 84.62421964 -49.24094037 82.95122802 -51.92822266 80.28222656 C-53.0391478 79.17152802 -53.0391478 79.17152802 -54.17251587 78.03839111 C-54.97152313 77.24970642 -55.7705304 76.46102173 -56.59375 75.6484375 C-57.41217377 74.83284363 -58.23059753 74.01724976 -59.07382202 73.17694092 C-61.68778723 70.57416688 -64.30862255 67.97843488 -66.9296875 65.3828125 C-68.70358204 63.6189491 -70.47702516 61.8546316 -72.25 60.08984375 C-76.59633892 55.76555114 -80.94833831 51.4470192 -85.3046875 47.1328125 C-80.96476329 38.14546543 -72.34463898 29.92656911 -64.3046875 24.1328125 C-61.07197227 25.54832938 -58.97793706 27.24073545 -56.53344727 29.7722168 C-55.80912003 30.51606125 -55.08479279 31.2599057 -54.33851624 32.02629089 C-53.17901711 33.22950737 -53.17901711 33.22950737 -51.99609375 34.45703125 C-50.34629125 36.14185214 -48.69588212 37.82607919 -47.04492188 39.50976562 C-44.4466275 42.17012941 -41.85323612 44.83476229 -39.27026367 47.51000977 C-36.77555607 50.08911497 -34.26256269 52.64917939 -31.74609375 55.20703125 C-30.58963097 56.41935677 -30.58963097 56.41935677 -29.4098053 57.65617371 C-28.3185862 58.75775566 -28.3185862 58.75775566 -27.20532227 59.8815918 C-26.25412254 60.86182564 -26.25412254 60.86182564 -25.28370667 61.86186218 C-22.97399867 63.66891875 -22.97399867 63.66891875 -18.3046875 62.1328125 C-15.0046875 60.8128125 -11.7046875 59.4928125 -8.3046875 58.1328125 C-7.9746875 39.3228125 -7.6446875 20.5128125 -7.3046875 1.1328125 C-4.7340316 -0.15251545 -2.87536536 0.00334512 0 0 Z "
    fill="#7C3108" transform="translate(248.3046875,138.8671875)" />
  <path
    d="M0 0 C4.71372937 2.63856166 6.99572627 6.2996788 8.6875 11.375 C9.49388986 17.21556658 8.84138905 21.6114122 5.4296875 26.46875 C1.42823236 30.84702378 -3.72544218 33.79540219 -8.75 36.86328125 C-14.64332781 40.55656607 -19.5577535 44.76001671 -22.09375 51.4296875 C-22.56062839 53.70069499 -22.56062839 53.70069499 -20.3125 56.375 C-20.49290501 59.7425602 -20.67355284 62.36613606 -22.5 65.25 C-25.13842676 66.88764419 -27.21707567 67.19291622 -30.3125 67.375 C-32.2925 66.715 -34.2725 66.055 -36.3125 65.375 C-41.2625 70.325 -41.2625 70.325 -46.3125 75.375 C-44.08125776 79.5585792 -41.65894731 83.254805 -38.75 87 C-22.76870522 108.87383922 -13.13420936 136.41370154 -11.3125 163.375 C-5.7025 163.375 -0.0925 163.375 5.6875 163.375 C6.0175 161.395 6.3475 159.415 6.6875 157.375 C7.75 155.5 7.75 155.5 9.6875 154.375 C16.55675795 153.61174912 16.55675795 153.61174912 20.1875 156.0625 C21.93383224 158.75476221 22.03732212 160.22660094 21.6875 163.375 C30.48922534 164.70356232 38.54945643 165.04501793 47.25 162.875 C54.11195815 161.16358526 60.19997531 160.19055765 67 162.5 C70.77702297 165.13513231 73.60374735 168.2074947 75.6875 172.375 C76.1947965 177.93031248 76.45010422 182.79330236 74 187.875 C70.36675226 191.8028354 67.19429622 195.0229664 61.6640625 195.578125 C56.59729571 195.67912367 52.17093527 195.1184306 47.25 193.875 C38.54945643 191.70498207 30.48922534 192.04643768 21.6875 193.375 C21.584375 194.48875 21.48125 195.6025 21.375 196.75 C21.148125 197.94625 20.92125 199.1425 20.6875 200.375 C17.02959118 202.81360588 13.94131916 203.22234023 9.6875 202.375 C7.1875 200.125 7.1875 200.125 5.6875 197.375 C5.6875 196.055 5.6875 194.735 5.6875 193.375 C0.0775 193.375 -5.5325 193.375 -11.3125 193.375 C-11.539375 195.623125 -11.76625 197.87125 -12 200.1875 C-15.16426894 227.11045908 -25.98094748 253.02298157 -42.28125 274.58984375 C-43.91174029 276.82549679 -45.19675775 278.85851613 -46.3125 281.375 C-43.24166978 285.08051121 -40.18680278 288.49895072 -36.3125 291.375 C-33.56234671 291.50000697 -31.84828259 290.94295214 -29.2890625 289.984375 C-27.3125 289.375 -27.3125 289.375 -24.375 290.5625 C-22.3125 292.375 -22.3125 292.375 -20.3125 295.375 C-20.62877097 298.91723486 -21.18798091 302.00144274 -22.3125 305.375 C-18.732782 313.23839727 -12.66769029 317.69582395 -5.53125 322.0859375 C6.36569899 329.40959696 6.36569899 329.40959696 8.6875 336.375 C9.46245324 342.81600476 8.59246706 348.09672648 4.6875 353.375 C-0.33803 357.37491163 -4.58918805 358.85723194 -10.921875 358.68359375 C-15.38271047 358.10776695 -18.11825714 356.53368543 -21.3125 353.375 C-24.56066187 349.13956277 -27.34947416 344.58341748 -30.20654297 340.08056641 C-33.93063896 334.33740204 -37.95028924 330.03556086 -44.3125 327.375 C-46.85545238 328.14209799 -46.85545238 328.14209799 -49.3125 329.375 C-52.71693211 329.19890868 -55.27940909 329.02929091 -58.1875 327.1875 C-59.81501421 324.56539376 -60.12827304 322.44544927 -60.3125 319.375 C-59.69454399 317.68966544 -59.03403728 316.01865634 -58.3125 314.375 C-59.8800518 312.6728302 -61.46709784 310.98859446 -63.0625 309.3125 C-63.94421875 308.37277344 -64.8259375 307.43304688 -65.734375 306.46484375 C-68.01346217 304.19259188 -68.01346217 304.19259188 -70.26953125 304.29296875 C-73.15664608 305.82209076 -75.66947626 307.76561704 -78.25 309.75 C-99.72569257 325.51950748 -129.23794417 338.375 -156.3125 338.375 C-156.3125 343.985 -156.3125 349.595 -156.3125 355.375 C-154.3325 355.705 -152.3525 356.035 -150.3125 356.375 C-148.4375 357.4375 -148.4375 357.4375 -147.3125 359.375 C-146.54924912 366.24425795 -146.54924912 366.24425795 -149 369.875 C-151.69226221 371.62133224 -153.16410094 371.72482212 -156.3125 371.375 C-157.64106232 380.17672534 -157.98251793 388.23695643 -155.8125 396.9375 C-154.10108526 403.79945815 -153.12805765 409.88747531 -155.4375 416.6875 C-158.07263231 420.46452297 -161.1449947 423.29124735 -165.3125 425.375 C-170.86781248 425.8822965 -175.73080236 426.13760422 -180.8125 423.6875 C-184.7403354 420.05425226 -187.9604664 416.88179622 -188.515625 411.3515625 C-188.61662367 406.28479571 -188.0559306 401.85843527 -186.8125 396.9375 C-184.64248207 388.23695643 -184.98393768 380.17672534 -186.3125 371.375 C-187.42625 371.271875 -188.54 371.16875 -189.6875 371.0625 C-190.88375 370.835625 -192.08 370.60875 -193.3125 370.375 C-195.75110588 366.71709118 -196.15984023 363.62881916 -195.3125 359.375 C-193.0625 356.875 -193.0625 356.875 -190.3125 355.375 C-188.9925 355.375 -187.6725 355.375 -186.3125 355.375 C-186.3125 349.765 -186.3125 344.155 -186.3125 338.375 C-189.6846875 338.0346875 -189.6846875 338.0346875 -193.125 337.6875 C-220.04795908 334.52323106 -245.96048157 323.70655252 -267.52734375 307.40625 C-269.76299679 305.77575971 -271.79601613 304.49074225 -274.3125 303.375 C-278.01801121 306.44583022 -281.43645072 309.50069722 -284.3125 313.375 C-284.43750697 316.12515329 -283.88045214 317.83921741 -282.921875 320.3984375 C-282.3125 322.375 -282.3125 322.375 -283.5 325.3125 C-285.3125 327.375 -285.3125 327.375 -288.3125 329.375 C-291.85473486 329.05872903 -294.93894274 328.49951909 -298.3125 327.375 C-308.2686217 331.90740588 -313.13794663 340.85176893 -318.50390625 349.859375 C-321.30794892 353.7595985 -324.83336695 356.60126331 -329.3125 358.375 C-334.91941835 359.28138154 -339.64974525 358.41543145 -344.5859375 355.65234375 C-348.20253281 352.97671781 -349.92148025 349.54805926 -351.3125 345.375 C-351.91886481 340.24575014 -351.81398672 335.59137328 -348.8984375 331.125 C-344.67810709 326.46808369 -339.1081409 323.11247776 -333.8046875 319.81640625 C-327.93085822 316.14277404 -323.05783937 311.96524255 -320.53125 305.3203125 C-320.06437161 303.04930501 -320.06437161 303.04930501 -322.3125 300.375 C-322.13209499 297.0074398 -321.95144716 294.38386394 -320.125 291.5 C-317.50289376 289.87248579 -315.38294927 289.55922696 -312.3125 289.375 C-310.6625 290.035 -309.0125 290.695 -307.3125 291.375 C-303.6825 287.745 -300.0525 284.115 -296.3125 280.375 C-291.94832996 282.55708502 -290.17599207 284.69757945 -287.19140625 288.40234375 C-285.08220374 290.61678713 -282.95662729 291.85106436 -280.3125 293.375 C-278.52978463 294.73455935 -276.75988284 296.11101185 -275 297.5 C-257.52517729 310.83020594 -236.66368371 319.54712498 -215.3125 324.375 C-214.24805664 324.62056641 -214.24805664 324.62056641 -213.16210938 324.87109375 C-192.23872676 329.47842641 -169.15255547 329.27596587 -148.3125 324.375 C-147.5709668 324.21402832 -146.82943359 324.05305664 -146.06542969 323.88720703 C-105.92472413 315.10484585 -70.36983603 290.41582962 -47.87695312 256.09570312 C-36.2141336 237.82706262 -28.81027296 218.55820961 -24.3125 197.375 C-23.94125 195.64443359 -23.94125 195.64443359 -23.5625 193.87890625 C-16.42183164 153.36553092 -27.53721699 110.65092501 -50.390625 77.03515625 C-52.47947951 74.14387592 -54.70032911 71.46080245 -57.08984375 68.81640625 C-58.3125 67.375 -58.3125 67.375 -59.6875 64.875 C-62.20852096 60.99650622 -65.76433797 58.29949459 -69.3125 55.375 C-67.77606148 51.69430113 -65.53099055 49.38724796 -62.6875 46.625 C-61.46160156 45.42617187 -61.46160156 45.42617187 -60.2109375 44.203125 C-59.58445312 43.59984375 -58.95796875 42.9965625 -58.3125 42.375 C-58.64378906 41.61316406 -58.97507812 40.85132813 -59.31640625 40.06640625 C-60.58589576 36.63629539 -60.42122401 34.84900188 -59.3125 31.375 C-57.1875 28.9375 -57.1875 28.9375 -54.3125 27.375 C-50.6720767 27.56329776 -47.76017107 28.22577631 -44.3125 29.375 C-36.28531057 25.72071757 -31.9772457 19.48843681 -27.34375 12.3359375 C-26.6528125 11.27632812 -25.961875 10.21671875 -25.25 9.125 C-24.61964844 8.12984375 -23.98929687 7.1346875 -23.33984375 6.109375 C-17.47845056 -1.79616495 -9.00991343 -4.06627179 0 0 Z "
    fill="#EF7A16" transform="translate(427.3125,77.625)" />
  <path
    d="M0 0 C4.66107601 1.66467 4.82743749 3.24115623 8 8 C-5.2 21.2 -18.4 34.4 -32 48 C-30.02 52.95 -28.04 57.9 -26 63 C-7.19 63.33 11.62 63.66 31 64 C32.28532795 66.5706559 32.12946738 68.42932214 32.1328125 71.3046875 C32.13410156 72.36300781 32.13539063 73.42132813 32.13671875 74.51171875 C32.13285156 75.62160156 32.12898437 76.73148437 32.125 77.875 C32.12886719 78.97714844 32.13273438 80.07929688 32.13671875 81.21484375 C32.13478516 82.80619141 32.13478516 82.80619141 32.1328125 84.4296875 C32.13168457 85.40147949 32.13055664 86.37327148 32.12939453 87.37451172 C32 90 32 90 31 94 C2.785 94.495 2.785 94.495 -26 95 C-29.1841393 102.43105273 -29.1841393 102.43105273 -32 110 C-18.8 123.2 -5.6 136.4 8 150 C4.1286922 155.16174374 0.86108311 159.39591959 -3.625 163.8125 C-4.54539062 164.72644531 -5.46578125 165.64039063 -6.4140625 166.58203125 C-8.53423804 168.56449146 -10.63367889 170.32802194 -13 172 C-16.22745524 170.58098338 -18.37258107 168.87144235 -20.85058594 166.37646484 C-21.59105164 165.63584808 -22.33151733 164.89523132 -23.09442139 164.13217163 C-23.88310608 163.33316437 -24.67179077 162.5341571 -25.484375 161.7109375 C-26.29996887 160.89251373 -27.11556274 160.07408997 -27.95587158 159.23086548 C-30.55864562 156.61690027 -33.15437762 153.99606495 -35.75 151.375 C-37.5138634 149.60110546 -39.2781809 147.82766234 -41.04296875 146.0546875 C-45.36726136 141.70834858 -49.6857933 137.35634919 -54 133 C-54.58007812 133.19335938 -55.16015625 133.38671875 -55.7578125 133.5859375 C-60.171875 135.05729167 -64.5859375 136.52864583 -69 138 C-69.33 156.81 -69.66 175.62 -70 195 C-73.48663001 195.8716575 -76.02900497 196.12870221 -79.5703125 196.1328125 C-80.63121094 196.13410156 -81.69210937 196.13539063 -82.78515625 196.13671875 C-83.88730469 196.13285156 -84.98945313 196.12898437 -86.125 196.125 C-87.78982422 196.13080078 -87.78982422 196.13080078 -89.48828125 196.13671875 C-91.07576172 196.13478516 -91.07576172 196.13478516 -92.6953125 196.1328125 C-93.66484863 196.13168457 -94.63438477 196.13055664 -95.63330078 196.12939453 C-98 196 -98 196 -100 195 C-100.33 176.19 -100.66 157.38 -101 138 C-108.43105273 134.8158607 -108.43105273 134.8158607 -116 132 C-129.2 145.2 -142.4 158.4 -156 172 C-158.64 170.02 -161.28 168.04 -164 166 C-162.25693554 162.51387109 -161.14579808 160.90948207 -158.46826172 158.28881836 C-157.74766571 157.57805649 -157.0270697 156.86729462 -156.28463745 156.13499451 C-155.50750397 155.37759476 -154.73037048 154.62019501 -153.9296875 153.83984375 C-152.29545899 152.22602682 -150.66134792 150.61209095 -149.02734375 148.99804688 C-146.44434552 146.45866539 -143.85894977 143.92178233 -141.27099609 141.38745117 C-138.77588689 138.94042505 -136.28988991 136.48442445 -133.8046875 134.02734375 C-133.02350555 133.26791977 -132.24232361 132.50849579 -131.43746948 131.72605896 C-130.7231778 131.01844925 -130.00888611 130.31083954 -129.27294922 129.58178711 C-128.6394455 128.96097763 -128.00594177 128.34016815 -127.35324097 127.70054626 C-125.68866302 125.97097159 -125.68866302 125.97097159 -126 123 C-127.43750191 121.31201173 -127.43750191 121.31201173 -129 120 C-125.58702037 120 -124.09284403 120.80400275 -121.0625 122.3125 C-111.46806983 126.75716384 -102.26308212 128.30595689 -91.73828125 128.7890625 C-89 129 -89 129 -88 130 C-85.12635209 130.41746608 -85.12635209 130.41746608 -82 130 C-81.39414062 129.38382813 -80.78828125 128.76765625 -80.1640625 128.1328125 C-77.64097435 125.64615883 -75.49404648 124.78919054 -72.1875 123.5625 C-68.41368093 122.09414131 -65.36008985 120.71793865 -62.25 118.125 C-58.79445511 115.86560526 -58.54404853 115.75965907 -54.8125 116.4375 C-51.09235254 117.37894293 -51.09235254 117.37894293 -48.5 115.625 C-46.86446573 112.76281503 -46.91269556 112.02604491 -47.125 108.875 C-47.38116678 103.66627542 -45.40829987 100.74698875 -42.58984375 96.49609375 C-40.63943069 93.43389733 -39.29456748 90.27537297 -37.95703125 86.91015625 C-37 85 -37 85 -35.40234375 83.44140625 C-33.66237625 81.95960224 -33.66237625 81.95960224 -33.75 78.875 C-33.68031822 76.10528442 -33.68031822 76.10528442 -35 75 C-35.21383173 72.9230799 -35.42147445 70.84530587 -35.59521484 68.76464844 C-36.46680861 58.4269588 -37.95745594 48.95448646 -43.3125 39.875 C-43.869375 38.92625 -44.42625 37.9775 -45 37 C-44.505 36.01 -44.505 36.01 -44 35 C-43.5875 35.515625 -43.175 36.03125 -42.75 36.5625 C-42.1725 37.036875 -41.595 37.51125 -41 38 C-37.38028266 37.63045591 -35.65250668 36.01879955 -33.14941406 33.48999023 C-32.40894836 32.74929794 -31.66848267 32.00860565 -30.90557861 31.24546814 C-29.72255157 30.03921532 -29.72255157 30.03921532 -28.515625 28.80859375 C-27.70003113 27.98875504 -26.88443726 27.16891632 -26.04412842 26.32423401 C-23.43896894 23.70227238 -20.84442921 21.07007552 -18.25 18.4375 C-16.48636631 16.65882155 -14.7220516 14.88081808 -12.95703125 13.10351562 C-8.63008597 8.7434806 -4.31181602 4.37499473 0 0 Z "
    fill="#6D2E03" transform="translate(341,177)" />
  <path
    d="M0 0 C1.0915857 0.86468305 2.17281969 1.7424363 3.25 2.625 C3.85328125 3.11226562 4.4565625 3.59953125 5.078125 4.1015625 C7.49759155 6.49152336 9.15081783 9.14962286 11 12 C12.3872188 13.79834483 13.78339063 15.58981177 15.1875 17.375 C39.11933833 49.27104027 49.1476102 91.49778941 44.50390625 130.95703125 C43.87141802 135.35105962 42.98007616 139.67189802 42 144 C41.83902832 144.74878418 41.67805664 145.49756836 41.51220703 146.26904297 C32.56783271 187.10728614 7.02717539 222.92889177 -27.875 245.6875 C-35.28243053 250.39402249 -43.04200954 254.31830328 -51 258 C-52.69962891 258.80244141 -52.69962891 258.80244141 -54.43359375 259.62109375 C-91.17697811 275.67807783 -135.23102364 275.14740862 -172.45214844 261.07275391 C-187.60455138 254.97392724 -201.1115816 247.04923058 -214 237 C-215.49831418 235.91433628 -216.99810249 234.83070116 -218.5 233.75 C-221.51963574 231.49785501 -223.81329376 229.09783385 -226 226 C-222.79256691 227.44851817 -219.97271902 229.33205138 -217.07958984 231.32470703 C-189.61015854 250.20240911 -158.70604633 260.49901802 -125.25 260.3125 C-124.54934418 260.31034485 -123.84868835 260.3081897 -123.12680054 260.30596924 C-112.16632674 260.25202975 -101.66428445 259.66426115 -91 257 C-90.19127441 256.80664062 -89.38254883 256.61328125 -88.54931641 256.4140625 C-47.24930607 246.33216131 -11.63229314 221.18056074 10.80029297 184.984375 C26.35594401 159.25455577 34.20183558 131.29629762 34.3125 101.25 C34.31511841 100.56736084 34.31773682 99.88472168 34.32043457 99.18139648 C34.32505699 87.87759472 33.28318426 77.17025663 30.54248047 66.1796875 C30.04251093 64.17080901 29.59864942 62.14818711 29.16015625 60.125 C24.423092 39.86695565 14.54968837 20.57967382 1.6875 4.328125 C0 2 0 2 0 0 Z "
    fill="#F69118" transform="translate(361,135)" />
  <path
    d="M0 0 C6.66732491 4.55452935 11.24458519 11.14776333 13.80859375 18.78125 C14.87587021 27.80458739 13.34169949 36.48035632 8.18359375 44.03125 C2.9332269 50.45125304 -3.92018821 54.78870384 -12.19140625 55.78125 C-13.02414062 55.88695312 -13.856875 55.99265625 -14.71484375 56.1015625 C-23.48080092 56.67926168 -30.8102183 53.6196359 -37.3984375 47.84765625 C-44.29968287 40.39431125 -46.71591719 31.88265061 -46.59375 21.82421875 C-45.49471178 13.51207533 -40.88676704 6.27313459 -34.31640625 1.18359375 C-23.49430676 -5.95819617 -11.46391619 -6.37565392 0 0 Z "
    fill="#F49018" transform="translate(272.19140625,230.21875)" />
  <path
    d="M0 0 C19.14 0 38.28 0 58 0 C59.28532795 2.5706559 59.12946738 4.42932214 59.1328125 7.3046875 C59.13474609 8.89216797 59.13474609 8.89216797 59.13671875 10.51171875 C59.13285156 11.62160156 59.12898438 12.73148438 59.125 13.875 C59.13080078 15.52822266 59.13080078 15.52822266 59.13671875 17.21484375 C59.13542969 18.27574219 59.13414062 19.33664062 59.1328125 20.4296875 C59.13168457 21.40147949 59.13055664 22.37327148 59.12939453 23.37451172 C59 26 59 26 58 30 C38.86 30 19.72 30 0 30 C0.33 27.69 0.66 25.38 1 23 C1.08089485 21.5197768 1.13037372 20.03711752 1.1328125 18.5546875 C1.13410156 17.78769531 1.13539063 17.02070313 1.13671875 16.23046875 C1.13285156 15.45316406 1.12898438 14.67585937 1.125 13.875 C1.12886719 13.08996094 1.13273437 12.30492187 1.13671875 11.49609375 C1.13542969 10.73167969 1.13414062 9.96726563 1.1328125 9.1796875 C1.13168457 8.49632324 1.13055664 7.81295898 1.12939453 7.10888672 C1.01701537 4.49706232 1.01701537 4.49706232 0 0 Z "
    fill="#985121" transform="translate(314,241)" />
  <path
    d="M0 0 C5.88221697 3.15073393 8.98369524 8.10600549 12.37109375 13.65625 C17.32767915 21.4857607 21.81972286 26.77802035 29.99609375 31.28125 C28.50955869 34.74754835 26.53887024 36.97147036 23.86328125 39.609375 C23.05761719 40.40859375 22.25195312 41.2078125 21.421875 42.03125 C20.58011719 42.85625 19.73835938 43.68125 18.87109375 44.53125 C18.02160156 45.37171875 17.17210937 46.2121875 16.296875 47.078125 C14.20104452 49.15040683 12.10068662 51.21787393 9.99609375 53.28125 C6.39325843 52.08030489 6.16648701 51.2718654 4.30859375 48.09375 C0.55648925 42.27247023 -3.95457561 39.15710228 -9.78515625 35.5703125 C-21.68210524 28.24665304 -21.68210524 28.24665304 -24.00390625 21.28125 C-24.77885949 14.84024524 -23.90887331 9.55952352 -20.00390625 4.28125 C-14.12240198 -0.39994728 -7.33643564 -2.63139212 0 0 Z "
    fill="#7B3107" transform="translate(100.00390625,76.71875)" />
  <path
    d="M0 0 C3.60283532 1.20094511 3.82960674 2.0093846 5.6875 5.1875 C9.4396045 11.00877977 13.95066936 14.12414772 19.78125 17.7109375 C31.67819899 25.03459696 31.67819899 25.03459696 34 32 C34.77495324 38.44100476 33.90496706 43.72172648 30 49 C24.97447 52.99991163 20.72331195 54.48223194 14.390625 54.30859375 C9.92978953 53.73276695 7.19424286 52.15868543 4 49 C0.75072027 44.76310514 -2.04006347 40.20541612 -4.8984375 35.70117188 C-8.96243652 29.42503155 -13.47058248 25.59615127 -20 22 C-18.51346494 18.53370165 -16.54277649 16.30977964 -13.8671875 13.671875 C-12.65869141 12.47304688 -12.65869141 12.47304688 -11.42578125 11.25 C-10.58402344 10.425 -9.74226563 9.6 -8.875 8.75 C-8.02550781 7.90953125 -7.17601562 7.0690625 -6.30078125 6.203125 C-4.20495077 4.13084317 -2.10459287 2.06337607 0 0 Z "
    fill="#7C3107" transform="translate(402,382)" />
  <path
    d="M0 0 C3.46629835 1.48653506 5.69022036 3.45722351 8.328125 6.1328125 C9.12734375 6.93847656 9.9265625 7.74414062 10.75 8.57421875 C11.575 9.41597656 12.4 10.25773437 13.25 11.125 C14.09046875 11.97449219 14.9309375 12.82398438 15.796875 13.69921875 C17.86915683 15.79504923 19.93662393 17.89540713 22 20 C20.79905489 23.60283532 19.9906154 23.82960674 16.8125 25.6875 C9.2213069 30.58040171 5.35482274 37.85281554 0.80859375 45.484375 C-1.99544892 49.3845985 -5.52086695 52.22626331 -10 54 C-15.60691835 54.90638154 -20.33724525 54.04043145 -25.2734375 51.27734375 C-28.89003281 48.60171781 -30.60898025 45.17305926 -32 41 C-32.60636481 35.87075014 -32.50148672 31.21637328 -29.5859375 26.75 C-25.36560709 22.09308369 -19.7956409 18.73747776 -14.4921875 15.44140625 C-9.01287405 12.0145136 -5.52177701 8.41545383 -2 3 C-1.34 2.01 -0.68 1.02 0 0 Z "
    fill="#7B3107" transform="translate(108,382)" />
  <path
    d="M0 0 C4.71372937 2.63856166 6.99572627 6.2996788 8.6875 11.375 C9.49388986 17.21556658 8.84138905 21.6114122 5.4296875 26.46875 C1.42823236 30.84702378 -3.72544218 33.79540219 -8.75 36.86328125 C-14.2516799 40.31112457 -17.77573846 43.93650439 -21.3125 49.375 C-21.9725 50.365 -22.6325 51.355 -23.3125 52.375 C-26.77879835 50.88846494 -29.00272036 48.91777649 -31.640625 46.2421875 C-32.43984375 45.43652344 -33.2390625 44.63085938 -34.0625 43.80078125 C-35.3 42.53814453 -35.3 42.53814453 -36.5625 41.25 C-37.40296875 40.40050781 -38.2434375 39.55101562 -39.109375 38.67578125 C-41.18165683 36.57995077 -43.24912393 34.47959287 -45.3125 32.375 C-44.11155489 28.77216468 -43.3031154 28.54539326 -40.125 26.6875 C-34.19385735 22.86125813 -31.13257828 18.18456527 -27.34375 12.3359375 C-26.30734375 10.74652344 -26.30734375 10.74652344 -25.25 9.125 C-24.61964844 8.12984375 -23.98929687 7.1346875 -23.33984375 6.109375 C-17.47845056 -1.79616495 -9.00991343 -4.06627179 0 0 Z "
    fill="#7B3107" transform="translate(427.3125,77.625)" />
  <path
    d="M0 0 C9.9 0 19.8 0 30 0 C29.67 2.64 29.34 5.28 29 8 C28.54339789 14.13778603 29.00862797 19.58294234 30.5 25.5625 C32.21141474 32.42445815 33.18444235 38.51247531 30.875 45.3125 C28.23986769 49.08952297 25.1675053 51.91624735 21 54 C15.44468752 54.5072965 10.58169764 54.76260422 5.5 52.3125 C1.5721646 48.67925226 -1.6479664 45.50679622 -2.203125 39.9765625 C-2.30412367 34.90979571 -1.7434306 30.48343527 -0.5 25.5625 C1.72882698 16.62616542 1.14001138 9.12009105 0 0 Z "
    fill="#7B3007" transform="translate(241,449)" />
  <path
    d="M0 0 C4.47870656 2.15937638 7.18198188 4.92952939 10 9 C12.17245632 15.51736897 11.15468052 21.88902379 9.5 28.4375 C7.27117302 37.37383458 7.85998862 44.87990895 9 54 C-0.9 54 -10.8 54 -21 54 C-20.67 51.36 -20.34 48.72 -20 46 C-19.54339789 39.86221397 -20.00862797 34.41705766 -21.5 28.4375 C-23.21141474 21.57554185 -24.18444235 15.48752469 -21.875 8.6875 C-16.09152477 0.39785217 -9.72132087 -0.91614542 0 0 Z "
    fill="#7B3007" transform="translate(262,9)" />
  <path
    d="M0 0 C3.77702297 2.63513231 6.60374735 5.7074947 8.6875 9.875 C9.1947965 15.43031248 9.45010422 20.29330236 7 25.375 C3.36675226 29.3028354 0.19429622 32.5229664 -5.3359375 33.078125 C-10.40270429 33.17912367 -14.82906473 32.6184306 -19.75 31.375 C-28.68633458 29.14617302 -36.19240895 29.73498862 -45.3125 30.875 C-45.3125 20.975 -45.3125 11.075 -45.3125 0.875 C-42.6725 1.205 -40.0325 1.535 -37.3125 1.875 C-31.17471397 2.33160211 -25.72955766 1.86637203 -19.75 0.375 C-12.88804185 -1.33641474 -6.80002469 -2.30944235 0 0 Z "
    fill="#7B3007" transform="translate(494.3125,240.125)" />
  <path
    d="M0 0 C8.93633458 2.22882698 16.44240895 1.64001138 25.5625 0.5 C25.5625 10.4 25.5625 20.3 25.5625 30.5 C22.9225 30.17 20.2825 29.84 17.5625 29.5 C11.42471397 29.04339789 5.97955766 29.50862797 0 31 C-6.86195815 32.71141474 -12.94997531 33.68444235 -19.75 31.375 C-23.52702297 28.73986769 -26.35374735 25.6675053 -28.4375 21.5 C-28.9447965 15.94468752 -29.20010422 11.08169764 -26.75 6 C-18.69918433 -2.70358451 -11.06646725 -2.79629447 0 0 Z "
    fill="#7B3007" transform="translate(37.4375,240.5)" />
  <path
    d="M0 0 C4.78440226 2.71730757 8.68850395 7.21195125 10.390625 12.484375 C11.51601438 18.7963415 11.20220702 24.06534302 8.01953125 29.7109375 C4.86725574 34.15322114 0.88978526 36.74866576 -4.25 38.5 C-10.17078683 39.43297247 -15.03112526 39.13360005 -20.1875 35.9375 C-24.16801131 32.93965517 -26.17482915 29.9962035 -28.25 25.5 C-28.58 24.84 -28.91 24.18 -29.25 23.5 C-30.01433771 16.75879197 -29.47992501 10.97195285 -25.25 5.5 C-18.01976728 -1.17741814 -9.47805164 -4.14550621 0 0 Z "
    fill="#FEC81C" transform="translate(265.25,237.5)" />
  <path
    d="M0 0 C5.31068805 4.43416672 10.24836617 9.11516686 15.12109375 14.0234375 C15.86585464 14.76961334 16.61061554 15.51578918 17.37794495 16.28457642 C19.73350827 18.64569389 22.08555216 21.01028162 24.4375 23.375 C26.04338763 24.98590856 27.64950516 26.59658796 29.25585938 28.20703125 C33.17323513 32.13537513 37.08773487 36.06656674 41 40 C40.59143768 40.47454117 40.18287537 40.94908234 39.76193237 41.43800354 C39.22416168 42.06375778 38.68639099 42.68951202 38.13232422 43.33422852 C37.33385574 44.26260277 37.33385574 44.26260277 36.51925659 45.20973206 C34.65670303 47.40453572 32.87999095 49.65601177 31.125 51.9375 C30.52945313 52.70964844 29.93390625 53.48179687 29.3203125 54.27734375 C28.88460937 54.84582031 28.44890625 55.41429687 28 56 C22.68931195 51.56583328 17.75163383 46.88483314 12.87890625 41.9765625 C11.76176491 40.85729874 11.76176491 40.85729874 10.62205505 39.71542358 C8.26649173 37.35430611 5.91444784 34.98971838 3.5625 32.625 C1.95661237 31.01409144 0.35049484 29.40341204 -1.25585938 27.79296875 C-5.17323513 23.86462487 -9.08773487 19.93343326 -13 16 C-11.51542884 12.91016083 -9.91654206 10.56172387 -7.625 8 C-7.00753906 7.3090625 -6.39007813 6.618125 -5.75390625 5.90625 C-3.889351 3.87974006 -1.9867193 1.90725053 0 0 Z "
    fill="#995220" transform="translate(176,170)" />
  <path
    d="M0 0 C3.56087718 3.54711883 6.91558345 7.03432158 10 11 C10 11.66 10 12.32 10 13 C10.99 13.33 11.98 13.66 13 14 C12.42415412 17.67352274 11.01262011 19.35384147 8.39819336 21.94238281 C7.63748032 22.70286926 6.87676727 23.46335571 6.09300232 24.24688721 C5.26695999 25.05744568 4.44091766 25.86800415 3.58984375 26.703125 C2.74780899 27.54091492 1.90577423 28.37870483 1.03822327 29.24188232 C-1.65506683 31.91836832 -4.3585966 34.58424056 -7.0625 37.25 C-8.88935548 39.06181098 -10.71553605 40.87430274 -12.54101562 42.6875 C-17.01953977 47.1329318 -21.50651745 51.56969161 -26 56 C-27.12187826 55.05026267 -28.24207892 54.09854345 -29.36157227 53.14599609 C-29.98556412 52.61622162 -30.60955597 52.08644714 -31.25245667 51.5406189 C-33.33202023 49.70729388 -35.14926121 47.74169082 -36.9375 45.625 C-37.52402344 44.93664062 -38.11054688 44.24828125 -38.71484375 43.5390625 C-39.35099609 42.77722656 -39.35099609 42.77722656 -40 42 C-38.56741228 38.72803548 -36.81174684 36.56796044 -34.28466797 34.05761719 C-33.52403046 33.29713074 -32.76339294 32.53664429 -31.97970581 31.75311279 C-31.15882477 30.94255432 -30.33794373 30.13199585 -29.4921875 29.296875 C-28.65156769 28.45908508 -27.81094788 27.62129517 -26.94485474 26.75811768 C-24.25955999 24.08401569 -21.56739345 21.41695276 -18.875 18.75 C-17.05292845 16.93795938 -15.23130823 15.12546482 -13.41015625 13.3125 C-8.94532748 8.86971964 -4.47483717 4.43269835 0 0 Z "
    fill="#995220" transform="translate(203,286)" />
  <path
    d="M0 0 C3.67352274 0.57584588 5.35384147 1.98737989 7.94238281 4.60180664 C9.08311249 5.74287621 9.08311249 5.74287621 10.24688721 6.90699768 C11.05744568 7.73304001 11.86800415 8.55908234 12.703125 9.41015625 C13.54091492 10.25219101 14.37870483 11.09422577 15.24188232 11.96177673 C17.91836832 14.65506683 20.58424056 17.3585966 23.25 20.0625 C25.06181098 21.88935548 26.87430274 23.71553605 28.6875 25.54101562 C33.1329318 30.01953977 37.56969161 34.50651745 42 39 C41.05026267 40.12187826 40.09854345 41.24207892 39.14599609 42.36157227 C38.61622162 42.98556412 38.08644714 43.60955597 37.5406189 44.25245667 C35.70729388 46.33202023 33.74169082 48.14926121 31.625 49.9375 C30.93664062 50.52402344 30.24828125 51.11054688 29.5390625 51.71484375 C28.77722656 52.35099609 28.77722656 52.35099609 28 53 C24.72803548 51.56741228 22.56796044 49.81174684 20.05761719 47.28466797 C19.29713074 46.52403046 18.53664429 45.76339294 17.75311279 44.97970581 C16.94255432 44.15882477 16.13199585 43.33794373 15.296875 42.4921875 C14.45908508 41.65156769 13.62129517 40.81094788 12.75811768 39.94485474 C10.08401569 37.25955999 7.41695276 34.56739345 4.75 31.875 C2.93795938 30.05292845 1.12546482 28.23130823 -0.6875 26.41015625 C-5.13028036 21.94532748 -9.56730165 17.47483717 -14 13 C-10.45288117 9.43912282 -6.96567842 6.08441655 -3 3 C-2.34 3 -1.68 3 -1 3 C-0.67 2.01 -0.34 1.02 0 0 Z "
    fill="#995220" transform="translate(300,296)" />
  <path
    d="M0 0 C3.0644489 1.47596308 5.4407084 3.058124 8 5.3125 C8.66 5.88613281 9.32 6.45976562 10 7.05078125 C12.22352787 9.21785236 14.07928477 11.56384283 16 14 C10.53655486 19.58989785 5.05385315 25.16035366 -0.44287109 30.7175293 C-2.31165801 32.6115086 -4.17593926 34.50994442 -6.03564453 36.4128418 C-8.70482841 39.14246271 -11.38964323 41.85580749 -14.078125 44.56640625 C-14.91055725 45.42464493 -15.7429895 46.28288361 -16.60064697 47.16712952 C-17.38115417 47.94801437 -18.16166138 48.72889923 -18.96582031 49.53344727 C-19.64976868 50.22849869 -20.33371704 50.92355011 -21.03839111 51.6396637 C-23 53 -23 53 -25.25213623 52.71665955 C-25.82893127 52.4801619 -26.40572632 52.24366425 -27 52 C-27 51.34 -27 50.68 -27 50 C-27.66 50 -28.32 50 -29 50 C-29 49.34 -29 48.68 -29 48 C-29.515625 47.773125 -30.03125 47.54625 -30.5625 47.3125 C-33.92549417 45.50165699 -36.92266792 43.25244929 -40 41 C-35.56583328 35.68931195 -30.88483314 30.75163383 -25.9765625 25.87890625 C-25.23038666 25.13414536 -24.48421082 24.38938446 -23.71542358 23.62205505 C-21.35430611 21.26649173 -18.98971838 18.91444784 -16.625 16.5625 C-15.01409144 14.95661237 -13.40341204 13.35049484 -11.79296875 11.74414062 C-7.86462487 7.82676487 -3.93343326 3.91226513 0 0 Z "
    fill="#995220" transform="translate(326,163)" />
  <path
    d="M0 0 C0 18.81 0 37.62 0 57 C-4.62 57.33 -9.24 57.66 -14 58 C-16.97 58.495 -16.97 58.495 -20 59 C-20 39.86 -20 20.72 -20 1 C-14.02970315 -1.98514842 -6.6749948 0 0 0 Z "
    fill="#995221" transform="translate(261,139)" />
  <path d="M0 0 C6.6 0.33 13.2 0.66 20 1 C20 19.81 20 38.62 20 58 C2 58 2 58 0 57 C0 38.19 0 19.38 0 0 Z "
    fill="#995221" transform="translate(241,315)" />
  <path
    d="M0 0 C18.81 0 37.62 0 57 0 C57.495 6.93 57.495 6.93 58 14 C58.495 16.97 58.495 16.97 59 20 C39.86 20 20.72 20 1 20 C-0.61892404 13.52430386 0 6.6749948 0 0 Z "
    fill="#985121" transform="translate(139,251)" />
  <path
    d="M0 0 C1 1 1 1 1.328125 3.359375 C1 6 1 6 -0.765625 7.703125 C-1.58546875 8.21359375 -2.4053125 8.7240625 -3.25 9.25 C-4.16523438 9.848125 -5.08046875 10.44625 -6.0234375 11.0625 C-7.49683594 12.0215625 -7.49683594 12.0215625 -9 13 C-35.4092208 31.69178094 -54.82190817 56.0665843 -64.89453125 87.01171875 C-65.99031292 89.97381409 -67.15894523 92.43382391 -69 95 C-71.625 95.375 -71.625 95.375 -74 95 C-75 94 -75 94 -75.2734375 91.01953125 C-75.19224 86.18335905 -73.46168317 82.10494301 -71.625 77.6875 C-71.26776855 76.81665771 -70.91053711 75.94581543 -70.54248047 75.04858398 C-62.66118616 56.34109403 -51.94143046 40.73464978 -38 26 C-36.84757812 24.76830078 -36.84757812 24.76830078 -35.671875 23.51171875 C-11.93689363 -1.10375386 -11.93689363 -1.10375386 0 0 Z "
    fill="#FFC71C" transform="translate(185,124)" />
  <path
    d="M0 0 C0.8245166 -0.0038269 1.6490332 -0.00765381 2.49853516 -0.01159668 C4.23666611 -0.01431097 5.97483825 -0.00698358 7.71289062 0.00976562 C10.36681558 0.03118395 13.0180338 0.00994945 15.671875 -0.015625 C17.36458928 -0.01298164 19.05730189 -0.00785647 20.75 0 C21.93456787 -0.01214539 21.93456787 -0.01214539 23.14306641 -0.02453613 C27.07876509 0.04213813 28.96676933 0.27156652 32.37475586 2.43945312 C34.375 4.53125 34.375 4.53125 35.00390625 6.53125 C34.98199219 7.19125 34.96007812 7.85125 34.9375 8.53125 C34.93943359 9.52125 34.93943359 9.52125 34.94140625 10.53125 C34.08213604 13.56536273 32.90241933 14.62280546 30.375 16.53125 C27.37765331 17.13243632 24.42389703 17.09182754 21.375 17.0625 C20.50230469 17.0663269 19.62960937 17.07015381 18.73046875 17.07409668 C16.88800908 17.0768149 15.04551076 17.06945994 13.203125 17.05273438 C10.38454066 17.03132248 7.56850515 17.05253801 4.75 17.078125 C2.95832771 17.07548171 1.16665701 17.07035669 -0.625 17.0625 C-1.46675781 17.07059692 -2.30851563 17.07869385 -3.17578125 17.08703613 C-9.01270011 16.99359528 -9.01270011 16.99359528 -12.15209961 14.62304688 C-13.73698977 12.37220336 -14.19282536 11.25783477 -14.1875 8.53125 C-14.20941406 7.87125 -14.23132813 7.21125 -14.25390625 6.53125 C-12.16775 -0.10298604 -5.78438453 -0.05930735 0 0 Z "
    fill="#FFC81C" transform="translate(245.625,432.46875)" />
  <path
    d="M0 0 C0.87269531 -0.0038269 1.74539062 -0.00765381 2.64453125 -0.01159668 C4.48699092 -0.0143149 6.32948924 -0.00695994 8.171875 0.00976562 C10.99045934 0.03117752 13.80649485 0.00996199 16.625 -0.015625 C18.41667229 -0.01298171 20.20834299 -0.00785669 22 0 C22.84175781 -0.00809692 23.68351562 -0.01619385 24.55078125 -0.02453613 C30.38770011 0.06890472 30.38770011 0.06890472 33.52709961 2.43945312 C35.11198977 4.69029664 35.56782536 5.80466523 35.5625 8.53125 C35.58441406 9.19125 35.60632813 9.85125 35.62890625 10.53125 C34.61611721 13.75204496 32.8169547 14.73933025 30 16.53125 C27.12077285 17.10732381 24.304056 17.09253164 21.375 17.0625 C20.5504834 17.0663269 19.7259668 17.07015381 18.87646484 17.07409668 C17.13833389 17.07681097 15.40016175 17.06948358 13.66210938 17.05273438 C11.00818442 17.03131605 8.3569662 17.05255055 5.703125 17.078125 C4.01041072 17.07548164 2.31769811 17.07035647 0.625 17.0625 C-0.16471191 17.07059692 -0.95442383 17.07869385 -1.76806641 17.08703613 C-5.70376509 17.02036187 -7.59176933 16.79093348 -10.99975586 14.62304688 C-13 12.53125 -13 12.53125 -13.62890625 10.53125 C-13.60699219 9.87125 -13.58507812 9.21125 -13.5625 8.53125 C-13.56378906 7.87125 -13.56507813 7.21125 -13.56640625 6.53125 C-11.6105413 -0.37497659 -6.00554818 -0.05776776 0 0 Z "
    fill="#FFC81C" transform="translate(245,62.46875)" />
  <path
    d="M0 0 C2.4375 2.125 2.4375 2.125 4 5 C3.91433779 9.32342233 3.51998958 11.39827293 0.6640625 14.703125 C-0.33882813 15.54359375 -1.34171875 16.3840625 -2.375 17.25 C-3.46953878 18.19289079 -4.56193549 19.13827301 -5.65234375 20.0859375 C-6.48741455 20.80281738 -6.48741455 20.80281738 -7.33935547 21.53417969 C-9.98493591 23.86938477 -12.46172837 26.36225089 -14.9375 28.875 C-15.79214844 29.73867188 -16.64679688 30.60234375 -17.52734375 31.4921875 C-19.24740925 33.23670891 -20.93280626 35.01581617 -22.58984375 36.8203125 C-25 39 -25 39 -28.625 39 C-33.3943662 37.58685446 -33.3943662 37.58685446 -35 35 C-36.0041778 31.70055867 -36.30988186 29.80569284 -35.0625 26.5625 C-32.69041159 23.61535986 -30.06158392 21.32134024 -27.1796875 18.8828125 C-21.47813404 13.95781471 -16.41506881 8.48146733 -11.640625 2.6640625 C-7.96862461 -1.06039504 -4.97857898 -1.55580593 0 0 Z "
    fill="#FEC81C" transform="translate(403,368)" />
  <path
    d="M0 0 C2.04404007 1.84341594 3.6961598 3.535329 5.4375 5.625 C6.39997117 6.72619697 7.36350956 7.82646211 8.328125 8.92578125 C8.78767578 9.45768066 9.24722656 9.98958008 9.72070312 10.53759766 C13.59847181 14.97039048 17.81562612 18.85044339 22.375 22.5625 C24.9909749 24.83306462 25.92768032 25.80968506 27.1875 29.125 C26.96149442 32.59041895 26.12209432 34.27159302 24 37 C21 39 21 39 17.640625 38.9609375 C13.13278882 37.77110091 11.72210196 36.17146522 8.75 32.625 C7.80710921 31.53046122 6.86172699 30.43806451 5.9140625 29.34765625 C5.19718262 28.51258545 5.19718262 28.51258545 4.46582031 27.66064453 C2.13061523 25.01506409 -0.36225089 22.53827163 -2.875 20.0625 C-3.73867187 19.20785156 -4.60234375 18.35320312 -5.4921875 17.47265625 C-7.23670891 15.75259075 -9.01581617 14.06719374 -10.8203125 12.41015625 C-13 10 -13 10 -13 6.375 C-11.65591398 1.83870968 -11.65591398 1.83870968 -9 0 C-5.35173596 -1.21608801 -3.68764948 -1.06928126 0 0 Z "
    fill="#FEC81D" transform="translate(118,368)" />
  <path
    d="M0 0 C4.7693662 1.41314554 4.7693662 1.41314554 6.375 4 C7.37227535 7.27676186 7.77736793 9.12469961 6.328125 12.27734375 C3.71547594 15.91937654 0.57928152 18.70724615 -2.75 21.6875 C-8.14469352 26.58300816 -13.04860443 31.50443664 -17.59765625 37.20703125 C-20.23334142 39.53801294 -22.1508253 39.80982488 -25.625 40 C-29.15406067 38.39588152 -30.45272908 37.25840638 -32.625 34 C-32.5745998 29.66558255 -32.14900398 27.6063725 -29.2890625 24.296875 C-27.78472656 23.03617188 -27.78472656 23.03617188 -26.25 21.75 C-25.15546122 20.80710921 -24.06306451 19.86172699 -22.97265625 18.9140625 C-22.41594238 18.43614258 -21.85922852 17.95822266 -21.28564453 17.46582031 C-18.64006409 15.13061523 -16.16327163 12.63774911 -13.6875 10.125 C-12.83285156 9.26132813 -11.97820312 8.39765625 -11.09765625 7.5078125 C-9.37759075 5.76329109 -7.69219374 3.98418383 -6.03515625 2.1796875 C-3.625 0 -3.625 0 0 0 Z "
    fill="#FEC81C" transform="translate(137.625,105)" />
  <path
    d="M0 0 C4.50783618 1.18983659 5.91852304 2.78947228 8.890625 6.3359375 C9.83351579 7.43047628 10.77889801 8.52287299 11.7265625 9.61328125 C12.20448242 10.16999512 12.68240234 10.72670898 13.17480469 11.30029297 C15.51000977 13.94587341 18.00287589 16.42266587 20.515625 18.8984375 C21.37929688 19.75308594 22.24296875 20.60773438 23.1328125 21.48828125 C24.87733391 23.20834675 26.65644117 24.89374376 28.4609375 26.55078125 C30.640625 28.9609375 30.640625 28.9609375 30.640625 32.5859375 C29.22747946 37.3553037 29.22747946 37.3553037 26.640625 38.9609375 C23.36386314 39.95821285 21.51592539 40.36330543 18.36328125 38.9140625 C14.72124846 36.30141344 11.93337885 33.16521902 8.953125 29.8359375 C4.05761684 24.44124398 -0.86381164 19.53733307 -6.56640625 14.98828125 C-8.89738794 12.35259608 -9.16919988 10.4351122 -9.359375 6.9609375 C-7.2715901 2.36781072 -5.29598158 -0.06158118 0 0 Z "
    fill="#FEC81D" transform="translate(376.359375,105.0390625)" />
  <path
    d="M0 0 C0.99 0.03287109 0.99 0.03287109 2 0.06640625 C2.66 0.06511719 3.32 0.06382812 4 0.0625 C7.03411273 0.92177021 8.09155546 2.10148692 10 4.62890625 C10.60118632 7.62625294 10.56057754 10.58000922 10.53125 13.62890625 C10.5350769 14.50160156 10.53890381 15.37429687 10.54284668 16.2734375 C10.5455649 18.11589717 10.53820994 19.95839549 10.52148438 21.80078125 C10.50007248 24.61936559 10.52128801 27.4354011 10.546875 30.25390625 C10.54423171 32.04557854 10.53910669 33.83724924 10.53125 35.62890625 C10.53934692 36.47066406 10.54744385 37.31242187 10.55578613 38.1796875 C10.46234528 44.01660636 10.46234528 44.01660636 8.09179688 47.15600586 C5.84095336 48.74089602 4.72658477 49.19673161 2 49.19140625 C1.01 49.22427734 1.01 49.22427734 0 49.2578125 C-3.22079496 48.24502346 -4.20808025 46.44586095 -6 43.62890625 C-6.57607381 40.7496791 -6.56128164 37.93296225 -6.53125 35.00390625 C-6.5350769 34.17938965 -6.53890381 33.35487305 -6.54284668 32.50537109 C-6.54556097 30.76724014 -6.53823358 29.029068 -6.52148438 27.29101562 C-6.50006605 24.63709067 -6.52130055 21.98587245 -6.546875 19.33203125 C-6.54423164 17.63931697 -6.53910647 15.94660436 -6.53125 14.25390625 C-6.53934692 13.46419434 -6.54744385 12.67448242 -6.55578613 11.86083984 C-6.48911187 7.92514116 -6.25968348 6.03713692 -4.09179688 2.62915039 C-2 0.62890625 -2 0.62890625 0 0 Z "
    fill="#FFC81C" transform="translate(439,231.37109375)" />
  <path
    d="M0 0 C0.66 -0.02191406 1.32 -0.04382813 2 -0.06640625 C5.22079496 0.94638279 6.20808025 2.7455453 8 5.5625 C8.57607381 8.44172715 8.56128164 11.258444 8.53125 14.1875 C8.5350769 15.0120166 8.53890381 15.8365332 8.54284668 16.68603516 C8.54556097 18.42416611 8.53823358 20.16233825 8.52148438 21.90039062 C8.50006605 24.55431558 8.52130055 27.2055338 8.546875 29.859375 C8.54423164 31.55208928 8.53910647 33.24480189 8.53125 34.9375 C8.53934692 35.72721191 8.54744385 36.51692383 8.55578613 37.33056641 C8.48911187 41.26626509 8.25968348 43.15426933 6.09179688 46.56225586 C4 48.5625 4 48.5625 2 49.19140625 C1.01 49.15853516 1.01 49.15853516 0 49.125 C-0.66 49.12628906 -1.32 49.12757813 -2 49.12890625 C-5.03411273 48.26963604 -6.09155546 47.08991933 -8 44.5625 C-8.60118632 41.56515331 -8.56057754 38.61139703 -8.53125 35.5625 C-8.5350769 34.68980469 -8.53890381 33.81710937 -8.54284668 32.91796875 C-8.5455649 31.07550908 -8.53820994 29.23301076 -8.52148438 27.390625 C-8.50007248 24.57204066 -8.52128801 21.75600515 -8.546875 18.9375 C-8.54423171 17.14582771 -8.53910669 15.35415701 -8.53125 13.5625 C-8.53934692 12.72074219 -8.54744385 11.87898437 -8.55578613 11.01171875 C-8.46234528 5.17479989 -8.46234528 5.17479989 -6.09179688 2.03540039 C-3.84095336 0.45051023 -2.72658477 -0.00532536 0 0 Z "
    fill="#FFC81D" transform="translate(71,231.4375)" />
  <path
    d="M0 0 C3.25763629 1.42999927 5.43035227 3.17756322 7.94238281 5.68359375 C9.08311249 6.81486694 9.08311249 6.81486694 10.24688721 7.96899414 C11.05744568 8.78360107 11.86800415 9.59820801 12.703125 10.4375 C13.54091492 11.27337646 14.37870483 12.10925293 15.24188232 12.97045898 C17.00941903 14.73663557 18.77443602 16.50533688 20.53710938 18.27636719 C23.24648274 20.99646881 25.96637765 23.70571999 28.6875 26.4140625 C30.40168357 28.12956717 32.1152469 29.84569186 33.828125 31.5625 C35.05610809 32.7844104 35.05610809 32.7844104 36.30889893 34.03100586 C37.43071564 35.16227905 37.43071564 35.16227905 38.57519531 36.31640625 C39.23819641 36.98099854 39.90119751 37.64559082 40.58428955 38.33032227 C42 40 42 40 42 42 C40.390625 43.359375 40.390625 43.359375 38.25 44.75 C37.55390625 45.21921875 36.8578125 45.6884375 36.140625 46.171875 C34 47 34 47 32.10687256 46.27822876 C29.77531459 44.86368451 28.07112163 43.31133479 26.14941406 41.37646484 C25.40894836 40.63584808 24.66848267 39.89523132 23.90557861 39.13217163 C23.11689392 38.33316437 22.32820923 37.5341571 21.515625 36.7109375 C20.70003113 35.89251373 19.88443726 35.07408997 19.04412842 34.23086548 C16.44135438 31.61690027 13.84562238 28.99606495 11.25 26.375 C9.4861366 24.60110546 7.7218191 22.82766234 5.95703125 21.0546875 C1.63273864 16.70834858 -2.6857933 12.35634919 -7 8 C-5.31847927 4.25979502 -3.30960527 2.43865652 0 0 Z "
    fill="#943C0A" transform="translate(184,163)" />
  <path
    d="M0 0 C4.455 2.97 4.455 2.97 9 6 C7.22903376 9.54193248 6.0040446 11.2410153 3.28466797 13.94238281 C2.52403046 14.70286926 1.76339294 15.46335571 0.97970581 16.24688721 C0.15882477 17.05744568 -0.66205627 17.86800415 -1.5078125 18.703125 C-2.34843231 19.54091492 -3.18905212 20.37870483 -4.05514526 21.24188232 C-6.74044001 23.91598431 -9.43260655 26.58304724 -12.125 29.25 C-13.94707155 31.06204062 -15.76869177 32.87453518 -17.58984375 34.6875 C-22.05467621 39.13028404 -26.5256841 43.56676767 -31 48 C-33.64 46.02 -36.28 44.04 -39 42 C-37.2634649 38.5269298 -36.14096484 36.89843718 -33.48413086 34.27294922 C-32.76676254 33.55895966 -32.04939423 32.84497009 -31.31028748 32.10934448 C-30.53629105 31.34880768 -29.76229462 30.58827087 -28.96484375 29.8046875 C-27.77405968 28.62170578 -27.77405968 28.62170578 -26.55921936 27.41482544 C-24.0233426 24.89676055 -21.48088208 22.38548213 -18.9375 19.875 C-16.39142771 17.35651636 -13.84681279 14.83660341 -11.30506897 12.31375122 C-9.72303024 10.74399988 -8.13832669 9.17692895 -6.55076599 7.61276245 C-5.47944176 6.55123459 -5.47944176 6.55123459 -4.38647461 5.46826172 C-3.7551915 4.84523163 -3.12390839 4.22220154 -2.47349548 3.58029175 C-0.90689521 2.04952185 -0.90689521 2.04952185 0 0 Z "
    fill="#8C400B" transform="translate(216,301)" />
  <path
    d="M0 0 C3.54193248 1.77096624 5.2410153 2.9959554 7.94238281 5.71533203 C9.08311249 6.8562883 9.08311249 6.8562883 10.24688721 8.02029419 C11.05744568 8.84117523 11.86800415 9.66205627 12.703125 10.5078125 C13.54091492 11.34843231 14.37870483 12.18905212 15.24188232 13.05514526 C17.91598431 15.74044001 20.58304724 18.43260655 23.25 21.125 C25.06204062 22.94707155 26.87453518 24.76869177 28.6875 26.58984375 C33.13028404 31.05467621 37.56676767 35.5256841 42 40 C40.02 42.64 38.04 45.28 36 48 C32.53631806 46.26815903 30.8979803 45.14369575 28.27294922 42.5 C27.55895966 41.78585937 26.84497009 41.07171875 26.10934448 40.3359375 C25.34880768 39.56507813 24.58827087 38.79421875 23.8046875 38 C23.01603302 37.20851563 22.22737854 36.41703125 21.41482544 35.6015625 C18.89681651 33.07236491 16.38584681 30.53630594 13.875 28 C12.17624159 26.29120891 10.47702811 24.58287008 8.77734375 22.875 C5.04077041 19.11875488 1.30862051 15.35817783 -2.41970825 11.59375 C-3.61030349 10.39301528 -4.80432427 9.19567573 -6 8 C-4.02 5.36 -2.04 2.72 0 0 Z "
    fill="#8C400B" transform="translate(307,287)" />
  <path
    d="M0 0 C4.13718891 1.79046411 5.66320139 4.16097371 8 8 C2.82506492 13.22120825 -2.35521049 18.43705409 -7.54243279 23.64605713 C-9.9507159 26.06479216 -12.35709743 28.48535848 -14.75927734 30.91015625 C-17.51890491 33.69560486 -20.286548 36.47300916 -23.0546875 39.25 C-23.9193161 40.12495117 -24.7839447 40.99990234 -25.67477417 41.90136719 C-26.47545319 42.70219727 -27.2761322 43.50302734 -28.10107422 44.328125 C-29.16030594 45.39401855 -29.16030594 45.39401855 -30.24093628 46.48144531 C-32 48 -32 48 -34 48 C-35.5078125 46.03125 -35.5078125 46.03125 -37.125 43.5 C-37.66382813 42.6646875 -38.20265625 41.829375 -38.7578125 40.96875 C-39.16773438 40.3190625 -39.57765625 39.669375 -40 39 C-39.26916199 38.37574379 -39.26916199 38.37574379 -38.52355957 37.73887634 C-33.5538933 33.44878342 -28.84176867 28.97565049 -24.21875 24.31640625 C-23.51979614 23.61603745 -22.82084229 22.91566864 -22.10070801 22.19407654 C-19.89808461 19.98591542 -17.69898919 17.77427963 -15.5 15.5625 C-13.99502492 14.05250186 -12.48981865 12.5427341 -10.984375 11.03320312 C-7.32024171 7.35812359 -3.6592652 3.67992644 0 0 Z "
    fill="#8C400B" transform="translate(341,177)" />
  <path
    d="M0 0 C2.0778057 1.71956334 3.97236361 3.52842529 5.8125 5.5 C4.61155489 9.10283532 3.8031154 9.32960674 0.625 11.1875 C-6.9661931 16.08040171 -10.83267726 23.35281554 -15.37890625 30.984375 C-18.18294892 34.8845985 -21.70836695 37.72626331 -26.1875 39.5 C-31.8518725 40.41566924 -36.38865738 39.39942131 -41.4609375 36.86328125 C-43.72043623 35.07919741 -44.82949029 33.01190139 -46.1875 30.5 C-44.77597656 30.56960938 -44.77597656 30.56960938 -43.3359375 30.640625 C-42.09070313 30.67671875 -40.84546875 30.7128125 -39.5625 30.75 C-37.71785156 30.81960938 -37.71785156 30.81960938 -35.8359375 30.890625 C-31.43415057 30.4193416 -29.5412847 29.3646911 -26.1875 26.5 C-24.57551543 24.27590446 -23.18231577 22.16954752 -21.8125 19.8125 C-8.46327187 -1.93446214 -8.46327187 -1.93446214 0 0 Z "
    fill="#6D2D03" transform="translate(124.1875,396.5)" />
  <path
    d="M0 0 C5.90933116 3.09356011 9.00981433 8.1050809 12.390625 13.64453125 C17.3472104 21.47404195 21.83925411 26.7663016 30.015625 31.26953125 C28.46367746 34.59713048 26.70940551 36.7553361 24.015625 39.26953125 C16.92095869 37.81421508 11.71009121 33.11618622 7.6328125 27.29541016 C5.69296651 24.31872708 3.8014151 21.32258759 1.99731445 18.26147461 C-0.73921683 13.72719217 -3.05905029 10.6307356 -7.984375 8.26953125 C-11.63970299 7.78967795 -11.63970299 7.78967795 -15.359375 8.01953125 C-17.22722656 8.07367188 -17.22722656 8.07367188 -19.1328125 8.12890625 C-20.54433594 8.19851562 -20.54433594 8.19851562 -21.984375 8.26953125 C-17.58364934 0.12953869 -8.9133434 -3.28109295 0 0 Z "
    fill="#6D2D03" transform="translate(99.984375,76.73046875)" />
  <path
    d="M0 0 C5.19181315 2.80685089 7.18304687 5.45249417 9 11 C9.91115308 15.84260989 9.48473127 19.77503274 7.125 24.125 C3.19628228 29.71842863 -2.70052012 32.98541373 -8.4375 36.48828125 C-13.9391799 39.93612457 -17.46323846 43.56150439 -21 49 C-21.66 49.99 -22.32 50.98 -23 52 C-26.36591866 50.55746343 -28.51047079 48.66735273 -31 46 C-29.54468383 38.90533369 -24.84665497 33.69446621 -19.02587891 29.6171875 C-16.04919583 27.67734151 -13.05305634 25.7857901 -9.99194336 23.98168945 C-5.45766092 21.24515817 -2.36120435 18.92532471 0 14 C0.4798533 10.34467201 0.4798533 10.34467201 0.25 6.625 C0.19585937 4.75714844 0.19585937 4.75714844 0.140625 2.8515625 C0.09421875 1.91054687 0.0478125 0.96953125 0 0 Z "
    fill="#6D2D03" transform="translate(427,78)" />
  <path d="M0 0 C19.14 0 38.28 0 58 0 C57.34 3.3 56.68 6.6 56 10 C37.19 10 18.38 10 -1 10 C-1 2 -1 2 0 0 Z "
    fill="#8C3F0A" transform="translate(140,241)" />
  <path
    d="M0 0 C-0.33 18.81 -0.66 37.62 -1 57 C-5.95 57.495 -5.95 57.495 -11 58 C-11 39.19 -11 20.38 -11 1 C-3 -1 -3 -1 0 0 Z "
    fill="#8C3F0A" transform="translate(272,315)" />
  <path d="M0 0 C3.3 0.33 6.6 0.66 10 1 C10 20.14 10 39.28 10 59 C6.7 58.34 3.4 57.68 0 57 C0 38.19 0 19.38 0 0 Z "
    fill="#8C3F0A" transform="translate(261,139)" />
  <path d="M0 0 C19.14 0 38.28 0 58 0 C59 2 59 2 59 10 C40.19 10 21.38 10 2 10 C1.34 6.7 0.68 3.4 0 0 Z " fill="#8C3F0A"
    transform="translate(314,241)" />
  <path
    d="M0 0 C1.2265625 1.7578125 1.2265625 1.7578125 2.625 4.125 C6.41264447 9.96618666 10.91965274 13.10506728 16.78125 16.7109375 C28.67819899 24.03459696 28.67819899 24.03459696 31 31 C31.79058093 37.57089392 30.63326621 42.4705401 27 48 C26.34 48.66 25.68 49.32 25 50 C24.01 49.67 23.02 49.34 22 49 C22.06960938 47.80503906 22.06960938 47.80503906 22.140625 46.5859375 C22.17671875 45.52632813 22.2128125 44.46671875 22.25 43.375 C22.29640625 42.33085937 22.3428125 41.28671875 22.390625 40.2109375 C21.88060206 36.01854895 20.74841025 34.21847733 18 31 C14.45712859 28.27128935 10.62884581 26.00668062 6.81835938 23.67578125 C0.87204693 19.91028014 -5.72165868 15.43879947 -7.75830078 8.36694336 C-8 6 -8 6 -6.85546875 4.19921875 C-6.30503906 3.70035156 -5.75460937 3.20148438 -5.1875 2.6875 C-4.64480469 2.17574219 -4.10210937 1.66398437 -3.54296875 1.13671875 C-2 0 -2 0 0 0 Z "
    fill="#6C2D03" transform="translate(405,383)" />
  <path
    d="M0 0 C3.3 0 6.6 0 10 0 C9.835 1.093125 9.67 2.18625 9.5 3.3125 C8.57923001 11.03071901 8.6097456 17.98364982 10.5 25.5625 C12.21141474 32.42445815 13.18444235 38.51247531 10.875 45.3125 C8.23986769 49.08952297 5.1675053 51.91624735 1 54 C-0.70702735 54.06996014 -2.41668003 54.08440154 -4.125 54.0625 C-5.03507813 54.05347656 -5.94515625 54.04445313 -6.8828125 54.03515625 C-7.58148438 54.02355469 -8.28015625 54.01195312 -9 54 C-4 49 -4 49 -2.3125 47.5625 C0.18044048 44.59471371 1.0213178 41.56685815 0.96875 37.703125 C0.61614175 33.64813014 -0.01784644 29.80560298 -1.0625 25.875 C-2.10037199 21.52061977 -2.22129436 17.20692867 -2.25 12.75 C-2.259104 12.06405762 -2.26820801 11.37811523 -2.27758789 10.67138672 C-2.25368081 6.67548835 -1.75647961 3.59660112 0 0 Z "
    fill="#6D2D03" transform="translate(261,449)" />
  <path
    d="M0 0 C9.73032529 -0.62329486 9.73032529 -0.62329486 14.4375 1.6875 C18.42332349 5.28446267 21.64631748 8.47677795 22.203125 14.0234375 C22.30412367 19.09020429 21.7434306 23.51656473 20.5 28.4375 C18.32998207 37.13804357 18.67143768 45.19827466 20 54 C16.7 54 13.4 54 10 54 C5.88806485 45.46486768 7.4432434 34.50615169 9.5625 25.5625 C10.8378992 20.16658031 11.93075191 15.34669759 10 10 C7.35855628 5.78665418 4.54612079 3.04131671 0 1 C0 0.67 0 0.34 0 0 Z "
    fill="#6D2D03" transform="translate(251,9)" />
  <path
    d="M0 0 C8.70054357 2.17001793 16.76077466 1.82856232 25.5625 0.5 C25.5625 3.8 25.5625 7.1 25.5625 10.5 C17.02736768 14.61193515 6.06865169 13.0567566 -2.875 10.9375 C-8.26716401 9.66298851 -13.09528002 8.56410642 -18.4375 10.5 C-22.29338134 12.94181521 -24.9776765 15.12052949 -26.4375 19.5 C-27.0975 19.5 -27.7575 19.5 -28.4375 19.5 C-28.79230978 14.51295144 -29.02290154 10.67080309 -26.75 6.125 C-18.89085493 -2.7961917 -11.01226529 -2.78259862 0 0 Z "
    fill="#6D2E03" transform="translate(37.4375,240.5)" />
  <path
    d="M0 0 C3.68069887 1.53643852 5.98775204 3.78150945 8.75 6.625 C9.54921875 7.44226563 10.3484375 8.25953125 11.171875 9.1015625 C11.77515625 9.72804687 12.3784375 10.35453125 13 11 C11.50174324 14.65148915 9.42568867 16.59041744 6.4375 19.125 C1.18125514 23.72325788 -3.43789793 28.72162587 -8 34 C-11.58402695 32.46751951 -14.02850134 30.3325399 -16.8125 27.625 C-17.62332031 26.85414063 -18.43414062 26.08328125 -19.26953125 25.2890625 C-21 23 -21 23 -20.80834961 21.07763672 C-19.84754024 18.60814481 -18.68251166 17.32458641 -16.796875 15.46875 C-16.14589844 14.82292969 -15.49492188 14.17710937 -14.82421875 13.51171875 C-14.13972656 12.84785156 -13.45523438 12.18398437 -12.75 11.5 C-12.08097656 10.83613281 -11.41195312 10.17226562 -10.72265625 9.48828125 C-7.29313996 6.11266698 -3.83840297 2.91599605 0 0 Z "
    fill="#9B5320" transform="translate(141,120)" />
  <path
    d="M0 0 C3.77702297 2.63513231 6.60374735 5.7074947 8.6875 9.875 C8.75783769 11.74879605 8.7718022 13.62501102 8.75 15.5 C8.74097656 16.50289063 8.73195313 17.50578125 8.72265625 18.5390625 C8.71105469 19.30992187 8.69945312 20.08078125 8.6875 20.875 C8.15125 20.153125 7.615 19.43125 7.0625 18.6875 C3.10007082 13.99514966 0.29866086 10.79554586 -5.875 9.875 C-9.99985689 9.63525422 -13.44902825 10.27955007 -17.4375 11.3125 C-26.16238759 13.57143764 -36.97948344 14.89728299 -45.3125 10.875 C-45.3125 7.575 -45.3125 4.275 -45.3125 0.875 C-43.6728125 1.1225 -43.6728125 1.1225 -42 1.375 C-34.28178099 2.29576999 -27.32885018 2.2652544 -19.75 0.375 C-12.88804185 -1.33641474 -6.80002469 -2.30944235 0 0 Z "
    fill="#6D2E03" transform="translate(494.3125,240.125)" />
  <path
    d="M0 0 C3.19363953 1.37859928 4.99361769 2.88108828 7.1875 5.5625 C11.20029044 10.31197983 15.56778794 14.64509396 20 19 C20.99 19.99 21.98 20.98 23 22 C19.04 25.96 15.08 29.92 11 34 C5.30538951 30.12766487 0.36203056 25.66593365 -4.5625 20.875 C-5.20654785 20.2651123 -5.8505957 19.65522461 -6.51416016 19.02685547 C-7.40627197 18.14344482 -7.40627197 18.14344482 -8.31640625 17.2421875 C-8.85724854 16.7147998 -9.39809082 16.18741211 -9.95532227 15.64404297 C-11 14 -11 14 -10.81054688 11.95849609 C-9.54004271 8.88862128 -7.31257335 7.03488069 -4.9375 4.75 C-4.01839844 3.85796875 -3.09929687 2.9659375 -2.15234375 2.046875 C-1.44207031 1.37140625 -0.73179687 0.6959375 0 0 Z "
    fill="#9B5420" transform="translate(131,358)" />
  <path
    d="M0 0 C2.45863748 0.95398601 3.75167859 2.10740069 5.60888672 3.97412109 C6.25470703 4.62058594 6.90052734 5.26705078 7.56591797 5.93310547 C8.56171875 6.95307617 8.56171875 6.95307617 9.57763672 7.99365234 C10.5734375 8.98461914 10.5734375 8.98461914 11.58935547 9.99560547 C15.37148003 13.81925036 18.01727804 17.21561432 21.07763672 21.80615234 C17.11763672 25.76615234 13.15763672 29.72615234 9.07763672 33.80615234 C6.34077303 31.06928865 3.60523859 28.33370201 0.88623047 25.57958984 C-0.23743554 24.4467457 -1.3611339 23.31393363 -2.48486328 22.18115234 C-3.04882812 21.60880859 -3.61279297 21.03646484 -4.19384766 20.44677734 C-6.96553402 17.65888228 -9.67248509 15.04689965 -12.92236328 12.80615234 C-11.38988279 9.22212539 -9.25490318 6.77765101 -6.54736328 3.99365234 C-5.77650391 3.18283203 -5.00564453 2.37201172 -4.21142578 1.53662109 C-1.92236328 -0.19384766 -1.92236328 -0.19384766 0 0 Z "
    fill="#9B5320" transform="translate(370.92236328125,120.19384765625)" />
  <path
    d="M0 0 C1.04796218 0.84643099 2.08792692 1.70276192 3.125 2.5625 C3.70507812 3.03816406 4.28515625 3.51382812 4.8828125 4.00390625 C7.83936049 6.79135279 10.39985777 9.88231181 13 13 C10.79350472 15.37671322 8.58446506 17.7510476 6.375 20.125 C5.75753906 20.79015625 5.14007813 21.4553125 4.50390625 22.140625 C3.27179918 23.46351891 2.03451628 24.78161194 0.79199219 26.09472656 C-0.3755002 27.33602228 -1.52693332 28.59268368 -2.65917969 29.86621094 C-4.2109375 31.5546875 -4.2109375 31.5546875 -7 34 C-11.3205514 33.56144779 -13.32087504 30.98224831 -16.25 27.9375 C-17.14203125 27.01839844 -18.0340625 26.09929687 -18.953125 25.15234375 C-19.62859375 24.44207031 -20.3040625 23.73179687 -21 23 C-19.89973587 19.6992076 -19.17290663 19.07519718 -16.5625 16.9375 C-10.6011698 11.88168831 -4.35293589 6.52940384 0 0 Z "
    fill="#9B5320" transform="translate(379,358)" />
  <path d="M0 0 C5.94 0 11.88 0 18 0 C18 9.9 18 19.8 18 30 C12.06 30 6.12 30 0 30 C0 20.1 0 10.2 0 0 Z " fill="#9C5521"
    transform="translate(416,241)" />
  <path d="M0 0 C5.94 0 11.88 0 18 0 C18 9.9 18 19.8 18 30 C12.06 30 6.12 30 0 30 C0 20.1 0 10.2 0 0 Z " fill="#9C5521"
    transform="translate(78,241)" />
  <path d="M0 0 C9.9 0 19.8 0 30 0 C30 5.61 30 11.22 30 17 C20.1 17 10.2 17 0 17 C0 11.39 0 5.78 0 0 Z " fill="#985121"
    transform="translate(241,416)" />
  <path d="M0 0 C9.9 0 19.8 0 30 0 C30 5.61 30 11.22 30 17 C20.1 17 10.2 17 0 17 C0 11.39 0 5.78 0 0 Z " fill="#985121"
    transform="translate(241,79)" />
  <path
    d="M0 0 C4.75050819 -0.09913574 9.50040976 -0.17159264 14.25170898 -0.21972656 C15.86672458 -0.23979892 17.48166789 -0.2670633 19.09643555 -0.30175781 C21.42254501 -0.35047215 23.74769093 -0.37301154 26.07421875 -0.390625 C26.79212082 -0.41127014 27.51002289 -0.43191528 28.24967957 -0.45318604 C31.89855731 -0.45480645 33.85594587 -0.09256204 36.95605469 1.89941406 C39 4 39 4 39.62890625 6 C39.51894417 9.31179922 39.24641565 11.53063686 37.6875 14.5 C33.35603598 16.91756131 28.85001072 16.30103515 24 16 C25.0209375 14.9790625 25.0209375 14.9790625 26.0625 13.9375 C28.35845022 11.07281828 28.35845022 11.07281828 27.875 7.3125 C27.28337929 3.9480001 27.28337929 3.9480001 25 2 C22.3817233 1.62826984 22.3817233 1.62826984 19.3359375 1.5859375 C18.21445312 1.54726563 17.09296875 1.50859375 15.9375 1.46875 C14.761875 1.4378125 13.58625 1.406875 12.375 1.375 C10.59996094 1.31699219 10.59996094 1.31699219 8.7890625 1.2578125 C5.85953309 1.16331155 2.93001403 1.07775442 0 1 C0 0.67 0 0.34 0 0 Z "
    fill="#F6A41A" transform="translate(241,433)" />
  <path
    d="M0 0 C9.89914663 -0.61442979 9.89914663 -0.61442979 13.6875 1.5 C15.24641565 4.46936314 15.51894417 6.68820078 15.62890625 10 C14.6228335 13.19943632 12.78426346 14.21097046 10 16 C7.21471351 16.3428839 4.84469822 16.47029734 2.07421875 16.390625 C1.32662796 16.38496521 0.57903717 16.37930542 -0.19120789 16.37347412 C-2.56563911 16.35118468 -4.93852938 16.30100656 -7.3125 16.25 C-8.92771249 16.22992519 -10.54294877 16.21167613 -12.15820312 16.1953125 C-16.10605733 16.15134486 -20.05276792 16.08237261 -24 16 C-24 15.67 -24 15.34 -24 15 C-23.25838623 14.9906543 -22.51677246 14.98130859 -21.75268555 14.97167969 C-18.39694286 14.91804249 -15.04260438 14.83438207 -11.6875 14.75 C-10.52025391 14.73582031 -9.35300781 14.72164062 -8.15039062 14.70703125 C-7.03212891 14.67480469 -5.91386719 14.64257812 -4.76171875 14.609375 C-3.73006592 14.58842773 -2.69841309 14.56748047 -1.63549805 14.54589844 C1.10343047 14.22458373 1.10343047 14.22458373 2.86791992 12.18457031 C4.59103275 8.85948652 3.90290923 6.54714341 3 3 C1.51709953 1.30269402 1.51709953 1.30269402 0 0 Z "
    fill="#F6A41A" transform="translate(265,63)" />
  <path
    d="M0 0 C3.68069887 1.53643852 5.98775204 3.78150945 8.75 6.625 C9.54921875 7.44226563 10.3484375 8.25953125 11.171875 9.1015625 C11.77515625 9.72804687 12.3784375 10.35453125 13 11 C11.31847927 14.74020498 9.30960527 16.56134348 6 19 C2.54798361 17.52278578 0.35038064 15.56205999 -2.25 12.875 C-2.95640625 12.15054688 -3.6628125 11.42609375 -4.390625 10.6796875 C-4.92171875 10.12539062 -5.4528125 9.57109375 -6 9 C-4.38617243 5.59787701 -2.41396234 2.89675481 0 0 Z "
    fill="#943C0A" transform="translate(141,120)" />
  <path
    d="M0 0 C4.17230166 1.6998266 5.44487313 3.44487313 9 7 C5.04 10.96 1.08 14.92 -3 19 C-5.64 17.02 -8.28 15.04 -11 13 C-9.07859132 9.15718264 -7.4073184 7.19568073 -4.375 4.25 C-3.55773437 3.45078125 -2.74046875 2.6515625 -1.8984375 1.828125 C-0.95871094 0.92320312 -0.95871094 0.92320312 0 0 Z "
    fill="#8D400B" transform="translate(145,373)" />
  <path d="M0 0 C4 2 4 2 8 8 C4.04 11.96 0.08 15.92 -4 20 C-9 15 -9 15 -11 11 C-7.37 7.37 -3.74 3.74 0 0 Z "
    fill="#8D400B" transform="translate(384,134)" />
  <path
    d="M0 0 C4.89978413 3.95751795 9.00520914 8.12830382 13 13 C11.02 15.31 9.04 17.62 7 20 C3.15718264 18.07859132 1.19568073 16.4073184 -1.75 13.375 C-2.54921875 12.55773437 -3.3484375 11.74046875 -4.171875 10.8984375 C-4.77515625 10.27195312 -5.3784375 9.64546875 -6 9 C-4.38617243 5.59787701 -2.41396234 2.89675481 0 0 Z "
    fill="#8D400B" transform="translate(379,358)" />
  <path
    d="M0 0 C2.4375 2.125 2.4375 2.125 4 5 C4.1875 8.5 4.1875 8.5 3 12 C0.86170842 14.03137701 -1.43926701 15.54914084 -4 17 C-4.4021875 15.329375 -4.4021875 15.329375 -4.8125 13.625 C-5.65809019 9.78159049 -5.65809019 9.78159049 -9 8 C-11.33199388 7.92094936 -13.66832622 7.91201231 -16 8 C-15.0919838 6.86800647 -14.17316174 5.74467637 -13.25 4.625 C-12.73953125 3.99851562 -12.2290625 3.37203125 -11.703125 2.7265625 C-7.99987259 -1.0276521 -5.03463242 -1.57332263 0 0 Z "
    fill="#FDA91A" transform="translate(403,368)" />
  <path d="M0 0 C3.3 0 6.6 0 10 0 C10 5.61 10 11.22 10 17 C6.7 17 3.4 17 0 17 C0 11.39 0 5.78 0 0 Z " fill="#8C3F0A"
    transform="translate(261,416)" />
  <path
    d="M0 0 C6.57402673 4.84040611 6.57402673 4.84040611 8.125 9.0625 C7.97467693 12.59509207 7.15814774 14.22523863 5 17 C2 19 2 19 -1.375 19.0625 C-6.18544537 17.65254187 -7.60638711 15.2246716 -10 11 C-8.329375 10.5978125 -8.329375 10.5978125 -6.625 10.1875 C-2.78159049 9.34190981 -2.78159049 9.34190981 -1 6 C-0.60986284 4.0103005 -0.26797351 2.00980131 0 0 Z "
    fill="#FDAA1A" transform="translate(137,388)" />
  <path d="M0 0 C5.61 0 11.22 0 17 0 C17 3.3 17 6.6 17 10 C11.39 10 5.78 10 0 10 C0 6.7 0 3.4 0 0 Z " fill="#8C3F0A"
    transform="translate(416,241)" />
  <path d="M0 0 C5.61 0 11.22 0 17 0 C17 3.3 17 6.6 17 10 C11.39 10 5.78 10 0 10 C0 6.7 0 3.4 0 0 Z " fill="#8C3F0A"
    transform="translate(79,241)" />
  <path
    d="M0 0 C4.14311035 2.34740195 6.61461052 3.86411522 8.1875 8.5 C8 12 8 12 6.4375 14.875 C3.48097805 17.45248068 1.91032112 18 -2 18 C-6.1387592 16.22624606 -8.37492036 13.59733136 -11 10 C-8.98177083 9.54427083 -6.96354167 9.08854167 -4.9453125 8.6328125 C-2.79280036 8.09525572 -2.79280036 8.09525572 -1 6 C-0.60235737 4.01178687 -0.26224651 2.01055661 0 0 Z "
    fill="#FDAA1A" transform="translate(399,127)" />
  <path d="M0 0 C3.3 0 6.6 0 10 0 C10 5.61 10 11.22 10 17 C6.7 17 3.4 17 0 17 C0 11.39 0 5.78 0 0 Z " fill="#8C3F0A"
    transform="translate(261,79)" />
  <path
    d="M0 0 C2.64764845 1.67684402 2.95477045 2.85138861 3.875 5.875 C4.02796552 9.69913795 3.35349332 11.01890846 1 14 C-1.6875 16.3125 -1.6875 16.3125 -4 18 C-4.103125 16.906875 -4.20625 15.81375 -4.3125 14.6875 C-4.73329605 11.16452291 -4.73329605 11.16452291 -6.1875 9.125 C-8.69974914 7.56567295 -11.09150946 7.32316562 -14 7 C-13.21366078 5.85050412 -12.42073742 4.70551011 -11.625 3.5625 C-11.18414062 2.92441406 -10.74328125 2.28632812 -10.2890625 1.62890625 C-7.35999652 -2.07236804 -4.24573176 -0.89383826 0 0 Z "
    fill="#FDAA19" transform="translate(141,106)" />
  <path
    d="M0 0 C2.5625 1.9375 2.5625 1.9375 4 5 C4.01544708 8.07911831 3.60424228 10.98535646 3 14 C2.319375 13.484375 1.63875 12.96875 0.9375 12.4375 C-2.87319838 10.57269016 -4.9412538 10.94773247 -9 12 C-10.69336093 13.48420903 -10.69336093 13.48420903 -12 15 C-12.61442979 5.10085337 -12.61442979 5.10085337 -10.5 1.3125 C-6.93344972 -0.5599389 -3.93534205 -0.90134624 0 0 Z "
    fill="#FFAA1A" transform="translate(75,232)" />
  <path
    d="M0 0 C1.90625 0.3984375 1.90625 0.3984375 4.40625 1.7109375 C6.82381131 6.04240152 6.20728515 10.54842678 5.90625 15.3984375 C5.205 14.7384375 4.50375 14.0784375 3.78125 13.3984375 C0.40797663 11.05181255 -1.07124297 10.79934071 -5.09375 11.3984375 C-7.43636608 12.77770523 -7.43636608 12.77770523 -9.09375 14.3984375 C-9.99756779 9.88917267 -10.65310521 6.59010729 -8.65625 2.3359375 C-5.57381975 0.00531951 -3.78954397 -0.29694188 0 0 Z "
    fill="#FFAA1A" transform="translate(443.09375,231.6015625)" />
  <path
    d="M0 0 C2.375 1.625 2.375 1.625 4 4 C4.61195145 7.6717087 4.48706506 9.28813568 2.375 12.375 C-0.71186432 14.48706506 -2.3282913 14.61195145 -6 14 C-8.375 12.375 -8.375 12.375 -10 10 C-10.61195145 6.3282913 -10.48706506 4.71186432 -8.375 1.625 C-5.28813568 -0.48706506 -3.6717087 -0.61195145 0 0 Z "
    fill="#F9C21C" transform="translate(259,294)" />
  <path
    d="M0 0 C2.4375 1.5625 2.4375 1.5625 4 4 C4 7.82389746 3.85254277 10.05611336 1.25 12.9375 C-1.49491218 14.23370853 -3.00074212 14.52487013 -6 14 C-8.3125 12.375 -8.3125 12.375 -10 10 C-10.61195145 6.3282913 -10.48706506 4.71186432 -8.375 1.625 C-5.28813568 -0.48706506 -3.6717087 -0.61195145 0 0 Z "
    fill="#F9C21B" transform="translate(291,281)" />
  <path
    d="M0 0 C2.375 1.625 2.375 1.625 4 4 C4.60975382 7.65852292 4.44543026 9.30512879 2.4375 12.4375 C0 14 0 14 -3.5625 14 C-7 13 -7 13 -8.9375 11.25 C-10.23370853 8.50508782 -10.52487013 6.99925788 -10 4 C-7.16979976 -0.02759265 -4.82432618 -0.80405436 0 0 Z "
    fill="#F9C21C" transform="translate(227,281)" />
  <path
    d="M0 0 C2.375 1.625 2.375 1.625 4 4 C4.61195145 7.6717087 4.48706506 9.28813568 2.375 12.375 C-0.71186432 14.48706506 -2.3282913 14.61195145 -6 14 C-8.375 12.375 -8.375 12.375 -10 10 C-10.61195145 6.3282913 -10.48706506 4.71186432 -8.375 1.625 C-5.28813568 -0.48706506 -3.6717087 -0.61195145 0 0 Z "
    fill="#F9C21C" transform="translate(304,249)" />
  <path
    d="M0 0 C2.375 1.625 2.375 1.625 4 4 C4.61195145 7.6717087 4.48706506 9.28813568 2.375 12.375 C-0.71186432 14.48706506 -2.3282913 14.61195145 -6 14 C-8.375 12.375 -8.375 12.375 -10 10 C-10.61195145 6.3282913 -10.48706506 4.71186432 -8.375 1.625 C-5.28813568 -0.48706506 -3.6717087 -0.61195145 0 0 Z "
    fill="#F9C21C" transform="translate(214,249)" />
  <path
    d="M0 0 C3.4375 1 3.4375 1 5.375 2.75 C6.67120853 5.49491218 6.96237013 7.00074212 6.4375 10 C4.8125 12.3125 4.8125 12.3125 2.4375 14 C-1.2342087 14.61195145 -2.85063568 14.48706506 -5.9375 12.375 C-8.04956506 9.28813568 -8.17445145 7.6717087 -7.5625 4 C-5.27647022 0.43379354 -4.27192374 0 0 0 Z "
    fill="#F9C21C" transform="translate(288.5625,217)" />
  <path
    d="M0 0 C2.3125 1.625 2.3125 1.625 4 4 C4.61195145 7.6717087 4.48706506 9.28813568 2.375 12.375 C-0.71186432 14.48706506 -2.3282913 14.61195145 -6 14 C-8.4375 12.4375 -8.4375 12.4375 -10 10 C-10 6.17610254 -9.85254277 3.94388664 -7.25 1.0625 C-4.50508782 -0.23370853 -2.99925788 -0.52487013 0 0 Z "
    fill="#F9C21C" transform="translate(227,217)" />
  <path
    d="M0 0 C2.375 1.625 2.375 1.625 4 4 C4.61195145 7.6717087 4.48706506 9.28813568 2.375 12.375 C-0.71186432 14.48706506 -2.3282913 14.61195145 -6 14 C-8.375 12.375 -8.375 12.375 -10 10 C-10.61195145 6.3282913 -10.48706506 4.71186432 -8.375 1.625 C-5.28813568 -0.48706506 -3.6717087 -0.61195145 0 0 Z "
    fill="#F9C21C" transform="translate(259,204)" />
  <path
    d="M0 0 C2.5 0.25 2.5 0.25 4.5 2.25 C3.94444444 6.80555556 3.94444444 6.80555556 2.5 8.25 C-0.5 8.375 -0.5 8.375 -3.5 8.25 C-4.5 7.25 -4.5 7.25 -4.6875 4.8125 C-4.42807033 1.26696114 -3.53871738 0.35387174 0 0 Z "
    fill="#FFC71C" transform="translate(197.5,115.75)" />
</svg>